<svg width="29" height="29" viewBox="0 0 29 29" fill="none" xmlns="http://www.w3.org/2000/svg">
<path d="M14.5101 0C22.5153 0 28.9899 6.48238 29 14.4948C29.0101 22.5373 22.4246 29.06 14.3087 28.9996C6.46458 28.9493 0 22.4266 0 14.4746C0 6.47231 6.49479 0 14.5101 0ZM11.5295 10.3175C11.4792 10.0658 11.4691 9.91482 11.4187 9.7739C10.9052 8.35462 10.3816 6.94541 9.85798 5.53619C9.66666 5.01277 9.27395 4.81146 8.74027 4.97251C7.54201 5.31475 6.46458 5.89856 5.59861 6.78435C5.3368 7.04606 5.15555 7.53929 5.18576 7.90166C5.28646 8.96863 5.42743 10.0356 5.6993 11.0724C7.37083 17.5749 11.1771 22.3864 17.1382 25.4967C17.6316 25.7483 18.0948 25.7483 18.5781 25.4967C19.5549 24.9833 20.4007 24.3089 21.1156 23.4634C21.6292 22.8494 21.609 22.4467 21.0149 21.9133C19.9878 20.9973 18.9507 20.1014 17.9337 19.1653C17.4503 18.7224 16.9368 18.6016 16.3226 18.7929C15.9097 18.9237 15.4767 18.9841 15.0639 19.1351C14.7618 19.2458 14.5806 19.1653 14.359 18.9539C12.7378 17.3635 11.4691 15.5315 10.4823 13.4882C10.1802 12.854 10.1299 12.3507 10.6635 11.8374C10.8951 11.6059 11.0865 11.314 11.2476 11.0221C11.3684 10.7805 11.449 10.5087 11.5295 10.3175ZM23.3611 13.9814C23.1698 13.2365 23.0489 12.6125 22.8476 12.0085C22.042 9.66317 20.5719 7.86139 18.4271 6.60317C17.974 6.34146 17.6014 6.41192 17.4604 6.80448C17.3295 7.16685 17.5309 7.36817 17.8128 7.58962C18.6285 8.23383 19.4743 8.83778 20.1792 9.59271C21.317 10.8107 21.891 12.3306 22.1427 13.9713C22.2031 14.3236 22.4246 14.5552 22.7569 14.4746C22.9885 14.4142 23.1597 14.1425 23.3611 13.9814ZM19.283 14.5652C18.9708 12.542 18.0344 11.1126 16.4132 10.1262C16.0708 9.91482 15.7587 9.91482 15.5472 10.2671C15.3257 10.6396 15.4868 10.9315 15.8493 11.1428C16.7253 11.6562 17.3899 12.391 17.7726 13.3372C17.9337 13.7398 18.0142 14.1727 18.125 14.5954C18.2156 14.9276 18.4472 15.1088 18.7594 15.0081C18.9708 14.9276 19.142 14.686 19.283 14.5652Z" fill="#3A55AD"/>
</svg>
