<svg width="25" height="24" viewBox="0 0 25 24" fill="none" xmlns="http://www.w3.org/2000/svg">
<path d="M24.1339 5.05006C24.2985 4.88551 24.371 4.65018 24.3276 4.42152C24.2842 4.19286 24.1304 4.00044 23.917 3.90764L21.5457 2.87626L20.7135 0.473222C20.6342 0.24423 20.4426 0.0721695 20.2064 0.0178642C19.9703 -0.0363474 19.7228 0.0346528 19.5514 0.20601L18.21 1.54742C16.4051 0.548865 14.3365 0.00318578 12.3251 0.00318578C9.12018 0.00318578 6.10713 1.25122 3.84089 3.51746C1.57465 5.7837 0.32666 8.79671 0.32666 12.0016C0.32666 15.2064 1.5747 18.2195 3.84094 20.4857C6.10713 22.7519 9.12023 24 12.3251 24C15.53 24 18.5431 22.752 20.8093 20.4857C23.0755 18.2195 24.3236 15.2065 24.3236 12.0016C24.3236 10.0051 23.827 8.04586 22.8834 6.30059L24.1339 5.05006ZM19.2068 7.98762L17.753 7.59749L21.1392 4.23361L22.4086 4.78576L19.2068 7.98762ZM18.9419 12.0016C18.9419 15.6501 15.9736 18.6183 12.3251 18.6183C8.6766 18.6183 5.70833 15.6501 5.70833 12.0016C5.70833 8.35308 8.6766 5.38481 12.3251 5.38481C13.4237 5.38481 14.36 5.60156 15.2565 6.06442L15.6192 7.7341L14.7272 8.62024C14.0488 8.13693 13.2196 7.85242 12.325 7.85242C10.0371 7.85242 8.17584 9.71371 8.17584 12.0016C8.17584 14.2895 10.0371 16.1508 12.325 16.1508C14.6129 16.1508 16.4742 14.2895 16.4742 12.0016C16.4742 11.1151 16.1946 10.2928 15.7192 9.61786L16.5985 8.74433L18.3285 9.2086C18.7462 10.0639 18.9419 10.9558 18.9419 12.0016ZM15.0674 12.0016C15.0674 13.5137 13.8372 14.7439 12.3251 14.7439C10.813 14.7439 9.58276 13.5137 9.58276 12.0016C9.58276 10.4895 10.813 9.25924 12.3251 9.25924C12.8287 9.25924 13.3006 9.39627 13.7066 9.63413L11.8048 11.5234C11.5292 11.7972 11.5277 12.2426 11.8015 12.5182C11.939 12.6566 12.1197 12.7259 12.3006 12.7259C12.4798 12.7259 12.6591 12.6578 12.7963 12.5215L14.699 10.6313C14.9328 11.0349 15.0674 11.5026 15.0674 12.0016ZM19.7517 1.99523L20.1726 3.21058L16.8034 6.55772L16.5153 5.23174L19.7517 1.99523ZM22.9166 12.0016C22.9166 14.8307 21.8149 17.4904 19.8144 19.4909C17.814 21.4914 15.1542 22.5931 12.3251 22.5931C9.49601 22.5931 6.83622 21.4914 4.83574 19.4909C2.83526 17.4904 1.73353 14.8307 1.73353 12.0016C1.73353 9.17244 2.83526 6.5127 4.83574 4.51226C6.83622 2.51178 9.49601 1.41006 12.3251 1.41006C13.9696 1.41006 15.6595 1.82438 17.1695 2.58789L15.2489 4.50846C15.247 4.51034 15.2454 4.51231 15.2435 4.51419C14.341 4.15445 13.3786 3.97793 12.325 3.97793C7.9008 3.97793 4.30141 7.57733 4.30141 12.0016C4.30141 16.4258 7.9008 20.0252 12.325 20.0252C16.7493 20.0252 20.3487 16.4258 20.3487 12.0016C20.3487 11.0109 20.2015 10.1298 19.892 9.28977C19.8994 9.28302 19.9071 9.27678 19.9142 9.26966L21.8392 7.34468C22.5462 8.78803 22.9166 10.3808 22.9166 12.0016Z" fill="#5966E0"/>
</svg>
