<svg width="30" height="26" viewBox="0 0 30 26" fill="none" xmlns="http://www.w3.org/2000/svg">
<path d="M18.8857 9.00999C21.0921 9.00999 22.8807 7.22135 22.8807 5.01494C22.8807 2.80854 21.0921 1.0199 18.8857 1.0199C16.6793 1.0199 14.8906 2.80854 14.8906 5.01494C14.8906 7.22135 16.6793 9.00999 18.8857 9.00999Z" stroke="#4E5AEA" stroke-width="2" stroke-linecap="round" stroke-linejoin="round"/>
<path d="M14.2264 13.0049H15.4259C15.2027 12.0576 14.6662 11.2133 13.9034 10.6088C13.1406 10.0043 12.196 9.67491 11.2227 9.67407H5.45319C4.30425 9.67407 3.20236 10.1305 2.38994 10.9429C1.57751 11.7553 1.12109 12.8572 1.12109 14.0062C1.12109 15.1551 1.57751 16.257 2.38994 17.0694C3.20236 17.8818 4.30425 18.3383 5.45319 18.3383H8.89309C8.89309 16.9238 9.455 15.5672 10.4552 14.567C11.4554 13.5668 12.8119 13.0049 14.2264 13.0049V13.0049Z" stroke="#959CF2" stroke-width="2" stroke-linecap="round" stroke-linejoin="round"/>
<path d="M8.3379 6.78933C8.91125 6.79129 9.47227 6.62294 9.94982 6.30562C10.4274 5.98831 10.7999 5.53632 11.0202 5.00699C11.2405 4.47765 11.2987 3.89481 11.1873 3.33238C11.076 2.76995 10.8001 2.25326 10.3946 1.84783C9.98922 1.44241 9.47253 1.16652 8.91009 1.05514C8.34766 0.943765 7.76482 1.00192 7.23549 1.22224C6.70615 1.44256 6.25417 1.81511 5.93685 2.29266C5.61953 2.7702 5.45118 3.33122 5.45314 3.90457C5.45314 4.66966 5.75707 5.40341 6.29807 5.94441C6.83907 6.4854 7.57282 6.78933 8.3379 6.78933V6.78933Z" stroke="#959CF2" stroke-width="2" stroke-linecap="round" stroke-linejoin="round"/>
<path d="M23.5449 13.005H14.2264C11.2809 13.005 8.89307 15.3928 8.89307 18.3383V19.6667C8.89307 22.6122 11.2809 25.0001 14.2264 25.0001H23.5449C26.4904 25.0001 28.8782 22.6122 28.8782 19.6667V18.3383C28.8782 15.3928 26.4904 13.005 23.5449 13.005Z" stroke="#4E5AEA" stroke-width="2" stroke-linecap="round" stroke-linejoin="round"/>
</svg>
