<svg width="22" height="27" viewBox="0 0 22 27" fill="none" xmlns="http://www.w3.org/2000/svg">
<circle cx="11" cy="15" r="10" fill="#C2CAE5" stroke="#3A55AD" stroke-width="2"/>
<path d="M5.86 15.5C5.86 14.3667 6.08667 13.38 6.54 12.54C6.99333 11.6867 7.62 11.0267 8.42 10.56C9.23333 10.0933 10.16 9.86 11.2 9.86C12.5467 9.86 13.6533 10.1867 14.52 10.84C15.4 11.4933 15.98 12.4 16.26 13.56H14.3C14.1133 12.8933 13.7467 12.3667 13.2 11.98C12.6667 11.5933 12 11.4 11.2 11.4C10.16 11.4 9.32 11.76 8.68 12.48C8.04 13.1867 7.72 14.1933 7.72 15.5C7.72 16.82 8.04 17.84 8.68 18.56C9.32 19.28 10.16 19.64 11.2 19.64C12 19.64 12.6667 19.4533 13.2 19.08C13.7333 18.7067 14.1 18.1733 14.3 17.48H16.26C15.9667 18.6 15.38 19.5 14.5 20.18C13.62 20.8467 12.52 21.18 11.2 21.18C10.16 21.18 9.23333 20.9467 8.42 20.48C7.62 20.0133 6.99333 19.3533 6.54 18.5C6.08667 17.6467 5.86 16.6467 5.86 15.5Z" fill="#3A55AD"/>
</svg>
