<svg width="101" height="100" viewBox="0 0 101 100" fill="none" xmlns="http://www.w3.org/2000/svg">
<rect x="0.5" width="100" height="100" rx="50" fill="#5966E0"/>
<g clip-path="url(#clip0_503_326)">
<path d="M50.5565 44.569C47.9172 44.569 45.457 43.5875 43.6268 41.7971C41.77 39.9867 40.7422 37.5199 40.7156 34.8607C40.6957 32.2679 41.6838 29.8077 43.5008 27.9377C45.3178 26.0676 47.7316 25.0199 50.2979 25C52.957 24.9735 55.4504 25.9682 57.3138 27.7918C59.1772 29.6154 60.2183 32.0822 60.2382 34.7281C60.278 40.1061 55.9809 44.5226 50.6493 44.569C50.6228 44.569 50.5897 44.569 50.5565 44.569ZM50.3907 26.1936C50.3642 26.1936 50.3377 26.1936 50.3111 26.1936C45.6427 26.2334 41.8761 30.1194 41.9159 34.8541C41.9358 37.195 42.8443 39.3568 44.469 40.9483C46.0936 42.5398 48.2886 43.4019 50.6427 43.382C55.3178 43.3422 59.0844 39.4629 59.0512 34.748C59.0313 32.4204 58.1228 30.2586 56.4849 28.6538C54.8668 27.0623 52.705 26.1936 50.3907 26.1936ZM49.4822 41.9165L49.2767 40.5836C49.1507 40.5371 49.0313 40.4974 48.9119 40.4509C48.2554 40.2188 47.5724 39.9801 46.9623 39.6088C46.5379 39.3501 46.644 38.8196 46.6772 38.6472C46.717 38.4483 46.7833 38.2096 46.8496 37.9775C46.9026 37.7918 46.9557 37.5995 46.9889 37.4602L47.1082 36.9032L47.6719 36.996C47.9769 37.0491 48.2687 37.1088 48.5472 37.1684C49.1573 37.2944 49.6878 37.4072 50.1918 37.3806C50.2117 37.3806 50.2382 37.374 50.2647 37.3674C50.5034 37.2812 50.5631 37.0756 50.5764 36.9894C50.6095 36.7971 50.5366 36.6048 50.3841 36.4854C50.3708 36.4722 50.3509 36.4589 50.3377 36.4523C50.0393 36.2533 49.6812 36.1008 49.3032 35.9416C48.9915 35.809 48.6732 35.6764 48.3615 35.504C47.2077 34.8607 46.6042 33.8528 46.6175 32.5928C46.6374 31.1737 47.3337 30.0928 48.5339 29.622C49.2103 29.3568 49.3562 29.1048 49.2435 28.382L49.1374 27.6923H51.5247L51.6905 29.0385C51.7767 29.065 51.8629 29.0915 51.9491 29.118C52.526 29.2838 53.1162 29.4562 53.6334 29.8143C54.1042 30.1393 53.9517 30.7427 53.7727 31.4324C53.7196 31.6379 53.6666 31.8501 53.6401 32.0159L53.5406 32.5862L52.9637 32.5066C52.705 32.4668 52.4597 32.4204 52.2276 32.3806C51.7369 32.2878 51.3191 32.2082 50.9411 32.2414C50.9279 32.2414 50.9146 32.248 50.9013 32.248C50.6825 32.3011 50.6294 32.4867 50.6095 32.5597C50.5963 32.626 50.5764 32.8382 50.782 32.9708L50.7886 32.9775C51.0671 33.1565 51.3854 33.2825 51.7302 33.4218C52.0485 33.5544 52.3801 33.687 52.6984 33.8661C53.9318 34.569 54.5751 35.683 54.5021 36.996C54.4226 38.4483 53.6666 39.5424 52.4265 39.9867C51.7767 40.2188 51.6042 40.4841 51.6772 41.134L51.7501 41.7573L49.4822 41.9165ZM47.8708 38.7533C48.3085 38.9788 48.7926 39.1512 49.3032 39.3302C49.5353 39.4098 49.7806 39.496 50.0194 39.5889L50.3443 39.7149L50.4836 40.6167C50.5764 39.7812 51.0804 39.2109 52.022 38.8727C53.0233 38.5146 53.2753 37.626 53.3085 36.943C53.3549 36.0743 52.9504 35.3913 52.1016 34.9072C51.8496 34.7613 51.5711 34.6485 51.2727 34.5292C50.8947 34.3767 50.5101 34.2175 50.1454 33.9854L50.1188 33.9722C49.5883 33.6207 49.3164 32.9841 49.4358 32.3475C49.5485 31.7109 50.0127 31.2268 50.6294 31.0809C50.6958 31.0676 50.7554 31.0544 50.8217 31.0477C51.3721 30.9947 51.9225 31.1008 52.4531 31.2003C52.4995 31.2069 52.5459 31.2202 52.5923 31.2268C52.5989 31.1936 52.6056 31.1605 52.6188 31.134C52.6586 30.9881 52.705 30.7958 52.7316 30.6565C52.4133 30.4907 52.022 30.378 51.6175 30.2586C51.3987 30.1923 51.1798 30.1326 50.9544 30.0531L50.6029 29.9337L50.4703 28.8859H50.4637C50.4172 29.7679 49.9398 30.3515 48.965 30.7294C47.9769 31.1141 47.8178 32.069 47.8111 32.6061C47.7979 33.4218 48.1692 34.0252 48.9385 34.4562C49.1904 34.5955 49.469 34.7149 49.7674 34.8409C50.1785 35.0133 50.6029 35.1923 51.0008 35.4576C51.0472 35.4841 51.087 35.5172 51.1268 35.5504C51.6175 35.9416 51.8562 36.5716 51.7501 37.1883C51.644 37.805 51.2329 38.2891 50.656 38.4947C50.5167 38.5411 50.3841 38.5676 50.2448 38.5743C49.5883 38.6074 48.965 38.4748 48.3018 38.3356C48.2024 38.3157 48.1029 38.2958 48.0034 38.2759C47.9968 38.2891 47.9968 38.3024 47.9902 38.3157C47.957 38.435 47.9106 38.6074 47.8708 38.7533Z" fill="white"/>
<path d="M40.7885 74.9801H36.9358V74.947H28.1758V74.9536H24.5419V74.3568C24.5419 73.6605 24.522 72.9443 24.5087 72.2546C24.4689 70.6499 24.4291 68.9854 24.6015 67.3541C24.8602 64.9337 26.4583 63.5942 29.1042 63.5876C31.445 63.5809 33.8058 63.5809 36.1068 63.5876C38.8787 63.6008 40.6692 65.2984 40.7753 68.0239C40.8283 69.4629 40.8151 70.8753 40.8018 72.3674C40.7952 73.0239 40.7885 73.7003 40.7885 74.3767V74.9801ZM38.1228 73.7865H39.5949C39.5949 73.3024 39.6015 72.8249 39.6082 72.3608C39.6214 70.882 39.6347 69.4828 39.5816 68.0769C39.5021 65.9947 38.2355 64.7944 36.1068 64.7878C33.8058 64.7812 31.4583 64.7812 29.1175 64.7878C27.075 64.7944 25.9875 65.683 25.7952 67.4934C25.6294 69.0451 25.6692 70.6631 25.709 72.2348C25.7222 72.7387 25.7355 73.256 25.7421 73.7666H26.9954V73.1764C26.9954 72.8647 26.9954 72.5531 26.9888 72.2414C26.9822 71.3992 26.9822 70.5239 27.0087 69.6552C27.022 69.317 27.1877 69.0318 27.3137 68.813C27.3602 68.7401 27.3999 68.6671 27.4265 68.6008L27.9305 67.5199L28.4941 68.5743C28.5339 68.6472 28.5803 68.7202 28.6267 68.7997C28.766 69.0252 28.9318 69.2838 28.9915 69.6021C29.0578 69.947 29.0445 70.2785 29.0312 70.6035C29.0246 70.7228 29.0246 70.8422 29.0246 70.9549V73.7533H36.1599C36.2129 73.1631 36.1931 72.5597 36.1732 71.9297C36.14 70.8621 36.1002 69.7547 36.4517 68.6737L36.5909 68.2427L38.136 68.3024V73.7865H38.1228Z" fill="white"/>
<path d="M58.3018 75.0001H54.5286V74.9603H45.2182V74.9404H42.0684V74.3435C42.0684 73.634 42.0551 72.9178 42.0418 72.2149C42.0087 70.5836 41.9755 68.8926 42.1214 67.2281C42.2143 66.1472 42.6784 65.2254 43.4676 64.5756C44.2103 63.9589 45.1917 63.6207 46.3058 63.6008C48.9185 63.5477 51.4716 63.5477 53.892 63.6008C56.3853 63.6538 57.9835 65.1923 58.2686 67.8183C58.3084 68.1698 58.3084 68.508 58.3084 68.8395V68.8926C58.3084 70.2255 58.3084 71.5584 58.3084 72.9377L58.3018 75.0001ZM55.7156 73.8064H57.1015V72.9443C57.1015 71.5716 57.1015 70.2321 57.1015 68.8992V68.8395C57.1015 68.5279 57.1015 68.2294 57.0684 67.9443C56.9158 66.5384 56.2328 64.8475 53.8522 64.7944C51.4517 64.7414 48.9185 64.7414 46.319 64.7944C44.5949 64.8276 43.4344 65.8024 43.3018 67.3342C43.1625 68.9324 43.1957 70.5902 43.2288 72.195C43.2421 72.7056 43.2487 73.2295 43.2554 73.7467H44.4954C44.5485 73.13 44.5286 72.5067 44.5087 71.8966C44.4755 70.8356 44.4424 69.7414 44.754 68.6605L44.8734 68.2361L46.4052 68.2029V73.7666H53.6532C53.6599 73.6406 53.6665 73.5279 53.6665 73.4085C53.6665 73.0173 53.6665 72.6128 53.6665 72.2215C53.6665 71.386 53.6599 70.5173 53.6864 69.6684C53.6997 69.3302 53.8588 69.0451 53.9848 68.8196C54.0312 68.7401 54.071 68.6671 54.0975 68.6074L54.5883 67.5265L55.1586 68.5676C55.1983 68.6406 55.2448 68.7135 55.2978 68.7997C55.4304 69.0186 55.583 69.2639 55.6692 69.5557C55.7487 69.8475 55.7355 70.126 55.7156 70.3714C55.709 70.4576 55.7023 70.5372 55.7023 70.6167V73.8064H55.7156Z" fill="white"/>
<path d="M73.1095 74.9735H63.4477V74.9337H60.1586V74.3369C60.1586 73.687 60.1586 73.0438 60.1519 72.4138C60.1453 70.9814 60.1387 69.6286 60.1652 68.2427C60.1983 66.8369 60.6493 65.6631 61.4782 64.8541C62.3005 64.0385 63.4808 63.6074 64.88 63.5942C67.1148 63.5743 69.4424 63.5743 72.0021 63.5942C74.5684 63.6141 76.3257 65.2387 76.4716 67.7321C76.5578 69.2573 76.5379 70.809 76.518 72.3143C76.5113 72.9841 76.4981 73.6737 76.4981 74.3567V74.9536H73.1095V74.9735ZM64.6413 73.7798H71.9159C71.9159 73.5809 71.9159 73.3819 71.9092 73.183C71.9026 72.1485 71.896 71.1671 71.9357 70.1591C71.9556 69.7414 72.1148 69.37 72.254 69.0385C72.3137 68.9058 72.3668 68.7798 72.4066 68.6605L73.0166 66.8899L73.5405 68.687C73.5803 68.813 73.6267 68.9456 73.6731 69.0849C73.7925 69.4164 73.9318 69.8011 73.945 70.2122C73.9848 71.2135 73.9782 72.2281 73.9716 73.2029C73.9716 73.3886 73.9716 73.5743 73.9649 73.7666H75.2978C75.2978 73.2758 75.3044 72.7851 75.3111 72.301C75.331 70.7493 75.3509 69.2838 75.2647 67.805C75.1586 65.9615 73.8986 64.8077 71.9822 64.7878C69.4357 64.7679 67.1082 64.7679 64.8867 64.7878C62.6586 64.8077 61.4052 66.0477 61.3588 68.2759C61.3323 69.6419 61.3389 70.9881 61.3456 72.4138C61.3456 72.8514 61.3522 73.2957 61.3522 73.7467H62.6983C62.7315 73.1432 62.7182 72.5331 62.705 71.943C62.6785 70.882 62.6586 69.7878 62.8774 68.7135L62.9769 68.2294L64.6413 68.2692V73.7798Z" fill="white"/>
<path d="M41.5976 64.1114C40.5764 64.1114 39.5551 63.687 38.7992 62.9377C38.0299 62.1817 37.6055 61.1936 37.6055 60.1591C37.5989 59.118 38.0167 58.13 38.7727 57.3674C39.522 56.6114 40.5498 56.1737 41.5843 56.1737H41.591C43.7992 56.1737 45.5498 57.9045 45.5631 60.1194C45.5697 61.187 45.1652 62.1883 44.4291 62.9377C43.6864 63.6936 42.6851 64.1114 41.6175 64.118C41.6175 64.1114 41.6108 64.1114 41.5976 64.1114ZM41.591 57.3607C40.8748 57.3607 40.1586 57.6658 39.6281 58.2029C39.0976 58.74 38.8058 59.4297 38.8058 60.1525C38.8058 60.8554 39.1175 61.565 39.648 62.0889C40.1851 62.6194 40.9013 62.9244 41.6175 62.9178C42.3668 62.9111 43.0631 62.6194 43.587 62.0955C44.1042 61.5716 44.3894 60.8687 44.3827 60.126C44.3628 58.5743 43.1427 57.3607 41.591 57.3607Z" fill="white"/>
<path d="M50.0856 64.1114C49.0246 64.1114 48.0366 63.7003 47.2939 62.9576C46.5512 62.2149 46.14 61.2202 46.1334 60.1525C46.1267 59.0782 46.5379 58.0769 47.2872 57.3276C48.0299 56.5849 49.0114 56.1737 50.0591 56.1737C50.0591 56.1737 50.0591 56.1737 50.0657 56.1737C51.1533 56.1737 52.1811 56.6048 52.9504 57.3806C53.6997 58.1432 54.1108 59.1379 54.0909 60.1857C54.0578 62.3541 52.2607 64.1114 50.0856 64.1114ZM50.0591 57.3674C49.3297 57.3674 48.6466 57.6525 48.1294 58.1698C47.6055 58.6936 47.3204 59.3965 47.3204 60.1525C47.327 61.7042 48.5405 62.9244 50.079 62.9244C51.6042 62.9244 52.8641 61.691 52.884 60.1724C52.8973 59.4496 52.6122 58.7533 52.0883 58.2228C51.5512 57.6658 50.8283 57.3674 50.0591 57.3674C50.0657 57.3674 50.0591 57.3674 50.0591 57.3674Z" fill="white"/>
<path d="M37.0153 55.6234C34.8203 55.6234 33.0763 53.9191 33.0299 51.7308C33.01 50.6698 33.4012 49.6685 34.1373 48.9059C34.8734 48.1433 35.8681 47.7122 36.9424 47.699C38.0166 47.6791 39.0312 48.0769 39.7805 48.813C40.5299 49.5425 40.9477 50.5372 40.9609 51.6048C40.9742 52.6791 40.5763 53.6937 39.8336 54.4496C39.1042 55.199 38.1161 55.6167 37.0617 55.63C37.0485 55.6234 37.0286 55.6234 37.0153 55.6234ZM36.9954 48.886C36.9821 48.886 36.9689 48.886 36.9556 48.886C36.2063 48.8992 35.51 49.1976 34.9928 49.7281C34.4821 50.2586 34.2103 50.9616 34.2235 51.6976C34.2567 53.2295 35.4768 54.4231 37.0153 54.4231C37.0286 54.4231 37.0352 54.4231 37.0485 54.4231C37.7845 54.4165 38.4676 54.1247 38.9782 53.6075C39.4954 53.0769 39.7739 52.3674 39.7607 51.6114C39.754 50.8621 39.4622 50.1658 38.9384 49.6618C38.4278 49.1645 37.7381 48.886 36.9954 48.886Z" fill="white"/>
<path d="M68.2421 64.1047C67.201 64.1047 66.213 63.7002 65.457 62.9708C64.6878 62.2281 64.2567 61.2467 64.2435 60.1989C64.2302 59.1644 64.6546 58.1366 65.4106 57.3674C66.1732 56.5982 67.2077 56.1605 68.2554 56.1605C68.262 56.1605 68.262 56.1605 68.2687 56.1605C69.3297 56.1671 70.3177 56.5783 71.0605 57.3276C71.8032 58.0769 72.2143 59.0716 72.2143 60.1326C72.2209 62.3408 70.4902 64.0848 68.2753 64.1047C68.262 64.1047 68.2488 64.1047 68.2421 64.1047ZM68.2554 57.3607C67.526 57.3607 66.7965 57.6724 66.2594 58.2162C65.7289 58.7533 65.4238 59.4761 65.4371 60.1923C65.457 61.6711 66.7435 62.9177 68.2421 62.9177C68.2488 62.9177 68.2554 62.9177 68.262 62.9177C69.8071 62.9045 71.0207 61.6843 71.014 60.1392C71.014 58.5875 69.8005 57.3674 68.2554 57.3607C68.2554 57.3607 68.262 57.3607 68.2554 57.3607Z" fill="white"/>
<path d="M32.6453 64.1114C31.6042 64.1114 30.6294 63.7202 29.8999 63.0106C29.144 62.2746 28.7262 61.2732 28.7195 60.1923C28.7063 59.0915 29.1174 58.0703 29.8668 57.3077C30.5896 56.5716 31.5644 56.1671 32.6121 56.1605C32.6188 56.1605 32.6254 56.1605 32.6254 56.1605C34.8071 56.1605 36.6042 57.9112 36.644 60.073C36.6639 61.1141 36.2593 62.1088 35.5166 62.878C34.7673 63.6539 33.7726 64.0915 32.7249 64.1114C32.6917 64.1114 32.6652 64.1114 32.6453 64.1114ZM32.6188 57.3608C32.6121 57.3608 32.6121 57.3608 32.6055 57.3608C31.8827 57.3608 31.2063 57.6459 30.7089 58.1499C30.1851 58.6804 29.8999 59.4032 29.9066 60.1857C29.9132 60.9483 30.205 61.6512 30.7288 62.1552C31.2461 62.6592 31.9424 62.9311 32.6917 62.9178C33.4145 62.9045 34.1241 62.5929 34.6479 62.0491C35.1718 61.5053 35.4503 60.8157 35.4437 60.0929C35.4172 58.5875 34.1506 57.3608 32.6188 57.3608Z" fill="white"/>
<path d="M59.3429 64.118C58.2686 64.118 57.2673 63.7069 56.5312 62.9642C55.7951 62.2215 55.3906 61.2202 55.3906 60.1459C55.3906 59.0517 55.8084 58.0371 56.5577 57.2944C57.2872 56.565 58.2686 56.1671 59.3097 56.1671C59.3164 56.1671 59.323 56.1671 59.323 56.1671C61.5113 56.1737 63.2951 57.9509 63.3018 60.1326C63.3084 61.1804 62.8906 62.1817 62.128 62.9443C61.3787 63.7003 60.3906 64.118 59.3429 64.118ZM59.3164 57.3607C58.5869 57.3607 57.9105 57.6392 57.4065 58.1432C56.8827 58.6671 56.5909 59.3766 56.5909 60.1525C56.5909 60.9085 56.8694 61.6114 57.3866 62.1286C57.8973 62.6459 58.5935 62.931 59.3495 62.931C60.0723 62.931 60.762 62.6393 61.2991 62.1021C61.8363 61.565 62.128 60.8687 62.1214 60.1392C62.1148 58.614 60.8615 57.374 59.3296 57.3674C59.323 57.3607 59.3164 57.3607 59.3164 57.3607Z" fill="white"/>
<path d="M54.8601 55.6233H54.8535C52.6718 55.6167 50.9012 53.8395 50.9079 51.6578C50.9079 50.5902 51.319 49.5955 52.0617 48.8528C52.8044 48.1101 53.7991 47.699 54.8601 47.699H54.8667C57.0949 47.7056 58.8323 49.4496 58.8323 51.6711C58.8323 52.7321 58.4145 53.7268 57.6652 54.4695C56.9158 55.2122 55.9145 55.6233 54.8601 55.6233ZM54.8535 48.8926C54.1108 48.8926 53.4145 49.1777 52.8972 49.695C52.38 50.2122 52.0949 50.9085 52.0882 51.6578C52.0882 53.183 53.3216 54.4297 54.8468 54.4297H54.8535C55.5962 54.4297 56.2925 54.1446 56.8163 53.6207C57.3402 53.0968 57.632 52.4072 57.632 51.6645C57.6386 50.1127 56.4185 48.8926 54.8535 48.8926C54.8601 48.8926 54.8601 48.8926 54.8535 48.8926Z" fill="white"/>
<path d="M63.5273 55.6233C62.4596 55.6233 61.4716 55.2255 60.7421 54.5026C60.0061 53.7732 59.5949 52.7785 59.575 51.6976C59.5618 50.6167 59.953 49.6088 60.6891 48.8661C61.4185 48.1234 62.4198 47.7056 63.5007 47.699C63.5074 47.699 63.514 47.699 63.5206 47.699C64.575 47.699 65.5697 48.1035 66.3124 48.8395C67.0617 49.5822 67.4795 50.5703 67.4861 51.6379C67.4928 52.6923 67.0883 53.687 66.3389 54.443C65.5962 55.1989 64.6015 55.6167 63.5538 55.6233C63.5472 55.6233 63.5405 55.6233 63.5273 55.6233ZM63.5206 48.8926C63.514 48.8926 63.5074 48.8926 63.5074 48.8926C62.7448 48.8992 62.0485 49.1844 61.5445 49.7016C61.0405 50.2188 60.762 50.9218 60.7753 51.6777C60.7952 53.2493 61.9822 54.4297 63.5339 54.4297C63.5405 54.4297 63.5472 54.4297 63.5538 54.4297C64.2899 54.4231 64.9795 54.1313 65.4968 53.6008C66.0206 53.0703 66.3058 52.374 66.2991 51.6446C66.2859 50.0995 65.0657 48.8926 63.5206 48.8926Z" fill="white"/>
<path d="M46.1599 55.6233C46.1533 55.6233 46.1466 55.6233 46.1466 55.6233C45.0923 55.6167 44.1108 55.2188 43.3947 54.496C42.6586 53.7533 42.2541 52.7321 42.2607 51.6247C42.2673 50.5305 42.6718 49.5226 43.4079 48.7997C44.1374 48.0769 45.1387 47.6857 46.2262 47.6923C47.2806 47.699 48.2753 48.1167 49.0114 48.8727C49.7541 49.6287 50.1586 50.6366 50.152 51.7042C50.1254 53.8727 48.335 55.6233 46.1599 55.6233ZM46.1466 54.4297C46.1533 54.4297 46.1533 54.4297 46.1599 54.4297C47.6851 54.4297 48.9384 53.2029 48.9517 51.691C48.9583 50.9416 48.6798 50.2387 48.1559 49.7082C47.6387 49.1844 46.949 48.8926 46.213 48.886C45.4437 48.8793 44.7408 49.1512 44.2435 49.6485C43.7395 50.1459 43.4543 50.8488 43.4543 51.6313C43.4477 52.4204 43.7329 53.1432 44.2435 53.6605C44.7342 54.1512 45.4106 54.4297 46.1466 54.4297Z" fill="white"/>
</g>
<defs>
<clipPath id="clip0_503_326">
<rect width="52.0623" height="50" fill="white" transform="translate(24.4689 25)"/>
</clipPath>
</defs>
</svg>
