<svg width="29" height="29" viewBox="0 0 29 29" fill="none" xmlns="http://www.w3.org/2000/svg">
<g clip-path="url(#clip0_524_5)">
<path d="M13.9902 0C14.3301 0 14.6699 0 15.0098 0C15.0607 0.0169922 15.1117 0.0509766 15.1684 0.0566406C15.8027 0.124609 16.4484 0.141602 17.0771 0.260547C20.6342 0.93457 23.5625 2.6791 25.8281 5.50547C27.5727 7.68613 28.5922 10.1727 28.8811 12.9537C28.9207 13.3162 28.9604 13.6787 29.0057 14.0412C29.0057 14.3414 29.0057 14.6473 29.0057 14.9475C28.983 15.0947 28.9547 15.242 28.9377 15.3893C28.8527 16.0576 28.8131 16.743 28.6771 17.4C27.9352 20.923 26.1283 23.7947 23.2793 25.9924C21.1553 27.6293 18.7537 28.5865 16.0803 28.8697C15.6895 28.9094 15.2986 28.9547 14.9078 28.9943C14.6416 28.9943 14.3811 28.9943 14.1148 28.9943C14.0639 28.9773 14.0072 28.949 13.9562 28.9434C13.2936 28.8754 12.6195 28.8527 11.9625 28.7338C8.43379 28.0768 5.52246 26.3605 3.25684 23.5738C1.47266 21.3762 0.424805 18.8613 0.135938 16.0406C0.0849609 15.6781 0.0396484 15.3156 0 14.9531C0 14.6529 0 14.3471 0 14.0469C0.0169922 13.9732 0.0509766 13.9053 0.0566406 13.8316C0.118945 13.2596 0.141602 12.6875 0.237891 12.1211C0.849609 8.49043 2.61113 5.5168 5.46582 3.20586C7.65215 1.43867 10.1557 0.407812 12.9594 0.118945C13.3049 0.0849609 13.6447 0.0396484 13.9902 0ZM20.0451 10.7957C19.8809 10.7957 19.7732 10.7957 19.6713 10.7957C18.6631 10.7957 17.6492 10.7957 16.641 10.7957C16.4768 10.7957 16.3748 10.7787 16.3748 10.5748C16.3861 9.79316 16.3748 9.00586 16.3918 8.22422C16.4031 7.73711 16.6523 7.43125 17.1168 7.29531C17.2867 7.24434 17.468 7.21035 17.6436 7.21035C18.3346 7.19902 19.0199 7.1877 19.7109 7.19902C19.9715 7.20469 20.0564 7.11406 20.0508 6.85918C20.0395 5.82832 20.0395 4.80312 20.0508 3.77227C20.0508 3.52305 19.9771 3.42676 19.7109 3.43242C18.6631 3.44941 17.6152 3.40977 16.5674 3.44941C15.9387 3.47207 15.3043 3.54004 14.6926 3.67598C13.2029 4.01016 12.1721 4.88242 11.7756 6.39473C11.6396 6.91582 11.566 7.4709 11.5434 8.00898C11.5037 8.84727 11.5264 9.68555 11.532 10.5295C11.532 10.7447 11.4697 10.8014 11.2602 10.8014C10.5805 10.79 9.90078 10.8014 9.22109 10.7957C9.01152 10.79 8.93789 10.858 8.93789 11.0676C8.94355 12.1324 8.94355 13.2029 8.93789 14.2678C8.93789 14.4604 9.00019 14.534 9.19844 14.5283C9.86113 14.517 10.5182 14.5396 11.1809 14.517C11.4811 14.5057 11.5377 14.6076 11.532 14.8852C11.5207 18.3289 11.5264 21.7727 11.5207 25.2164C11.5207 25.4883 11.5943 25.5732 11.8719 25.5676C13.2199 25.5562 14.568 25.5619 15.9217 25.5619C16.3691 25.5619 16.3691 25.5619 16.3691 25.1201C16.3691 21.7047 16.3748 18.2893 16.3635 14.8738C16.3635 14.6076 16.4201 14.517 16.7033 14.5227C17.5643 14.5396 18.4195 14.5283 19.2805 14.5283C19.3824 14.5283 19.4787 14.517 19.5977 14.5113C19.7506 13.2652 19.8922 12.0531 20.0451 10.7957Z" fill="#3A55AD"/>
</g>
<defs>
<clipPath id="clip0_524_5">
<rect width="29" height="29" fill="white"/>
</clipPath>
</defs>
</svg>
