<svg width="417" height="332" viewBox="0 0 417 332" fill="none" xmlns="http://www.w3.org/2000/svg">
<g opacity="0.2">
<path opacity="0.7" d="M-34.4991 291.884L414.65 510.914C416.217 511.569 417 513.537 417 514.848V531.898C417 535.177 412.291 537.801 409.148 535.833L-40.0013 316.804C-41.5677 316.148 -42.3508 314.181 -42.3508 312.87V295.819C-42.3508 292.54 -37.6418 289.917 -34.4991 291.884Z" fill="#CAD9FF"/>
<path opacity="0.7" d="M163.823 301.569V284.519C163.823 281.241 168.532 278.618 171.675 280.585L349.133 367.147C350.7 367.803 351.483 369.77 351.483 371.082V388.132C351.483 391.411 346.774 394.034 343.631 392.066L166.172 305.504C165.389 304.848 163.823 303.537 163.823 301.569Z" fill="#CAD9FF"/>
<path opacity="0.7" d="M-141.676 149.628V132.578C-141.676 129.299 -136.967 126.676 -133.824 128.643L111.161 248.731C112.727 249.386 113.51 251.354 113.51 252.666V269.716C113.51 272.995 108.801 275.618 105.659 273.65L-139.327 153.563C-140.893 152.907 -141.676 150.939 -141.676 149.628Z" fill="#CAD9FF"/>
<path opacity="0.7" d="M-8.3147 21.6621V4.61206C-8.3147 1.33337 -3.60263 -1.2896 -0.461906 0.677621L105.542 52.4835C107.113 53.1393 107.899 55.1073 107.899 56.4188V73.4689C107.899 76.7476 103.187 79.3705 100.046 77.4033L-5.95817 25.5965C-7.52853 24.9408 -8.3147 23.6302 -8.3147 21.6621Z" fill="#CAD9FF"/>
<path opacity="0.7" d="M179.926 114.742V97.6915C179.926 94.4128 184.635 91.789 187.778 93.7571L354.242 175.073C355.809 175.729 356.602 177.696 356.602 179.007V196.058C356.602 199.337 351.883 201.96 348.75 199.993L182.276 118.676C181.492 118.02 179.926 116.053 179.926 114.742Z" fill="#CAD9FF"/>
<path opacity="0.7" d="M-170.179 36.4821V19.4319C-170.179 16.1532 -165.468 13.5302 -162.326 15.4974L379.477 279.775C381.053 280.431 381.836 282.398 381.836 283.71V300.76C381.836 304.039 377.127 306.661 373.984 304.694L-167.822 40.4169C-169.392 39.761 -170.179 37.7937 -170.179 36.4821Z" fill="#CAD9FF"/>
</g>
</svg>
