<svg width="401" height="492" viewBox="0 0 401 492" fill="none" xmlns="http://www.w3.org/2000/svg">
<g opacity="0.2">
<path opacity="0.7" d="M168.501 291.884L617.65 510.914C619.217 511.569 620 513.537 620 514.848V531.898C620 535.177 615.291 537.801 612.148 535.833L162.999 316.804C161.432 316.148 160.649 314.181 160.649 312.87V295.819C160.649 292.54 165.358 289.917 168.501 291.884Z" fill="#CAD9FF"/>
<path opacity="0.7" d="M0 232.544V215.494C0 212.216 4.71109 209.592 7.85181 211.56L116.995 269.251C118.572 269.907 119.355 271.875 119.355 273.187V290.237C119.355 293.515 114.646 296.138 111.503 294.171L2.35555 236.479C1.57037 235.823 0 234.512 0 232.544Z" fill="#CAD9FF"/>
<path opacity="0.7" d="M366.823 301.569V284.519C366.823 281.241 371.532 278.618 374.675 280.585L552.133 367.147C553.7 367.803 554.483 369.77 554.483 371.082V388.132C554.483 391.411 549.774 394.034 546.631 392.066L369.172 305.504C368.389 304.848 366.823 303.537 366.823 301.569Z" fill="#CAD9FF"/>
<path opacity="0.7" d="M61.3239 149.628V132.578C61.3239 129.299 66.033 126.676 69.1757 128.643L314.161 248.731C315.727 249.386 316.511 251.354 316.511 252.666V269.716C316.511 272.995 311.802 275.618 308.659 273.65L63.6735 153.563C62.1071 152.907 61.3239 150.939 61.3239 149.628Z" fill="#CAD9FF"/>
<path opacity="0.7" d="M59.5955 357.781V340.731C59.5955 337.452 64.3046 334.83 67.4473 336.797L312.433 456.884C313.999 457.54 314.782 459.508 314.782 460.819V477.869C314.782 481.148 310.073 483.771 306.93 481.804L61.9451 361.717C60.3787 361.061 59.5955 359.093 59.5955 357.781Z" fill="#CAD9FF"/>
<path opacity="0.7" d="M194.685 21.6621V4.61206C194.685 1.33337 199.397 -1.2896 202.538 0.677621L308.542 52.4835C310.113 53.1393 310.899 55.1073 310.899 56.4188V73.4689C310.899 76.7476 306.187 79.3705 303.046 77.4033L197.042 25.5965C195.471 24.9408 194.685 23.6302 194.685 21.6621Z" fill="#CAD9FF"/>
<path opacity="0.7" d="M382.926 114.742V97.6915C382.926 94.4128 387.635 91.789 390.778 93.7571L557.242 175.073C558.809 175.729 559.602 177.696 559.602 179.007V196.058C559.602 199.337 554.883 201.96 551.75 199.993L385.276 118.676C384.493 118.02 382.926 116.053 382.926 114.742Z" fill="#CAD9FF"/>
<path opacity="0.7" d="M32.8214 36.4821V19.4319C32.8214 16.1532 37.5325 13.5302 40.6743 15.4974L582.477 279.775C584.053 280.431 584.836 282.398 584.836 283.71V300.76C584.836 304.039 580.127 306.661 576.985 304.694L35.178 40.4169C33.6076 39.761 32.8214 37.7937 32.8214 36.4821Z" fill="#CAD9FF"/>
</g>
</svg>
