<svg width="29" height="29" viewBox="0 0 29 29" fill="none" xmlns="http://www.w3.org/2000/svg">
<g clip-path="url(#clip0_525_11)">
<path d="M29.0001 14.4771C29.0066 22.5091 22.5136 29.0131 14.4936 29.0065C6.47357 28.9935 -0.0325061 22.483 0.00012219 14.4902C0.0327505 6.46476 6.4801 0.00653501 14.4871 4.95265e-06C22.5136 -0.00652511 28.9871 6.44517 29.0001 14.4771ZM6.61713 14.6731C6.61713 15.8354 6.58451 17.0043 6.62366 18.1666C6.70849 20.7525 8.47694 22.4895 11.0611 22.5157C13.2929 22.5418 15.5181 22.5418 17.7499 22.5157C20.3406 22.4895 22.1547 20.7199 22.2069 18.1275C22.2526 15.8223 22.2526 13.5107 22.2069 11.2056C22.1612 8.68499 20.3732 6.88922 17.9 6.85004C15.5834 6.81739 13.2668 6.81739 10.9502 6.85004C8.49 6.88922 6.72807 8.61315 6.62366 11.0815C6.57798 12.283 6.61713 13.4781 6.61713 14.6731Z" fill="#3A55AD"/>
<path d="M14.428 21.04C13.3056 21.04 12.1897 21.0596 11.0673 21.0334C9.24661 20.9943 8.072 19.8841 8.03284 18.0557C7.98064 15.7702 7.98716 13.4847 8.03284 11.1992C8.072 9.40992 9.09 8.37817 10.878 8.27369C11.9156 8.21492 12.9662 8.24757 14.0103 8.24757C15.3612 8.2541 16.712 8.21492 18.0562 8.28675C19.6746 8.37817 20.7644 9.52746 20.7905 11.1404C20.8231 13.4912 20.8231 15.842 20.7905 18.1929C20.7709 19.7992 19.5833 20.9681 17.9518 21.0138C16.7772 21.0596 15.6026 21.0334 14.428 21.04C14.428 21.0334 14.428 21.0334 14.428 21.04ZM14.3627 18.6238C16.6141 18.6304 18.4347 16.8607 18.4413 14.6601C18.4478 12.4464 16.6271 10.6245 14.3888 10.618C12.1897 10.6115 10.3756 12.4072 10.369 14.6079C10.356 16.8085 12.1636 18.6173 14.3627 18.6238ZM18.5718 11.3689C19.0938 11.3624 19.4919 10.9641 19.4984 10.4417C19.4984 9.90621 19.0873 9.48828 18.5522 9.49481C18.0367 9.50134 17.6256 9.91274 17.619 10.4286C17.619 10.9641 18.0367 11.3755 18.5718 11.3689Z" fill="#3A55AD"/>
<path d="M16.9665 14.6142C16.973 16.0443 15.818 17.2131 14.3824 17.2131C12.9598 17.2197 11.7852 16.0508 11.7852 14.6207C11.7852 13.1906 12.9467 12.0217 14.3693 12.0217C15.805 12.0217 16.96 13.1841 16.9665 14.6142Z" fill="#3A55AD"/>
</g>
<defs>
<clipPath id="clip0_525_11">
<rect width="29" height="29" fill="white"/>
</clipPath>
</defs>
</svg>
