<svg width="29" height="29" viewBox="0 0 29 29" fill="none" xmlns="http://www.w3.org/2000/svg">
<path d="M16.2697 24.8834C16.7856 26.1562 17.2499 27.3601 17.7315 28.5469C12.7098 30.0088 5.57281 27.9793 1.96133 21.7876C-1.42659 15.9571 -0.343144 8.47542 4.57535 3.93483C9.63143 -0.743346 17.0608 -1.31092 22.7016 2.5589C28.4283 6.49751 29.9933 13.4804 28.4283 18.2102C27.7232 18.0038 27.0181 17.7802 26.2786 17.5566C26.3646 16.9546 26.4334 16.4042 26.5194 15.7507C26.1239 15.7335 25.7799 15.6991 25.4532 15.6991C23.8022 15.7163 22.134 15.7507 20.4831 15.7679C20.2595 15.7679 20.0359 15.6991 19.8124 15.6303C17.4907 14.9423 15.169 14.2371 12.8646 13.3772C14.5671 13.3772 16.2697 13.3772 18.127 13.3772C18.0066 12.156 17.9206 11.0553 17.7831 9.97175C17.7659 9.85135 17.4563 9.66216 17.2843 9.66216C15.427 9.64496 13.5525 9.62777 11.6951 9.67936C11.506 9.67936 11.1792 10.0061 11.162 10.2125C10.7321 13.2396 10.7493 16.2495 11.2136 19.3969C11.9187 19.3969 12.6238 19.4313 13.3289 19.3797C13.8792 19.3453 14.1716 19.5173 14.3264 20.0505C14.4811 20.5836 14.7219 21.0996 14.9799 21.7532C13.862 21.7532 12.8474 21.7532 11.6779 21.7532C12.1251 23.4387 12.5722 24.9866 13.7072 26.2078C14.2232 26.7582 14.7563 26.7754 15.255 26.1906C15.599 25.795 15.8913 25.365 16.2697 24.8834ZM2.32247 13.3084C4.42057 13.3084 6.27791 13.3084 8.11804 13.2912C8.25562 13.2912 8.47919 13.0676 8.49639 12.9472C8.59958 11.8809 8.65117 10.7973 8.73716 9.62777C7.0346 9.62777 5.41803 9.62777 3.78426 9.64496C3.62949 9.64496 3.37152 9.78256 3.31993 9.92015C2.97598 10.9865 2.68362 12.0701 2.32247 13.3084ZM26.657 13.3256C26.313 12.1044 26.0035 11.0209 25.6767 9.93735C25.6423 9.81696 25.436 9.66216 25.3156 9.66216C23.6474 9.64496 21.9621 9.64496 20.2595 9.64496C20.3455 10.7973 20.3799 11.8293 20.5003 12.844C20.5175 13.016 20.7926 13.3084 20.9474 13.3084C22.7531 13.3256 24.5761 13.3256 26.657 13.3256ZM8.71996 19.3797C8.65117 18.2446 8.61677 17.2126 8.49639 16.1979C8.47919 16.0087 8.11804 15.7163 7.91167 15.7163C6.86262 15.6647 5.79638 15.6991 4.73013 15.6991C4.00783 15.6991 3.26834 15.6991 2.32247 15.6991C2.66642 16.9202 2.94159 17.9694 3.28554 18.9841C3.33713 19.1561 3.64668 19.3625 3.83586 19.3625C5.41803 19.3969 7.0174 19.3797 8.71996 19.3797ZM17.2671 7.20268C16.8888 5.67195 16.4417 4.24442 15.4786 3.04048C14.7735 2.16332 14.2404 2.16332 13.5353 3.04048C12.555 4.24442 12.0907 5.67195 11.7467 7.20268C13.5869 7.20268 15.3754 7.20268 17.2671 7.20268ZM10.5085 3.07487C8.23843 3.93483 6.38109 5.20757 4.85051 7.23708C6.27791 7.23708 7.53333 7.25428 8.78875 7.21988C8.96072 7.21988 9.23588 6.97909 9.30467 6.8071C9.71741 5.60315 10.0958 4.38201 10.5085 3.07487ZM18.4882 3.09207C18.8837 4.34761 19.2449 5.51716 19.6404 6.6695C19.7092 6.89309 19.9671 7.20268 20.1391 7.20268C21.4117 7.25428 22.6844 7.21988 24.1633 7.21988C22.564 5.24197 20.741 3.90044 18.4882 3.09207ZM4.81612 21.7704C6.44988 23.7999 8.25562 25.1414 10.4913 25.8982C10.0958 24.6427 9.71742 23.4387 9.32187 22.252C9.25308 22.0628 9.01232 21.7876 8.85754 21.7876C7.58492 21.7532 6.29511 21.7704 4.81612 21.7704Z" fill="#3A55AD"/>
<path d="M26.6394 29C25.3748 27.8873 24.1777 26.8602 22.9468 25.7817C22.2049 26.8431 21.4968 27.8531 20.7211 28.9829C19.1362 24.9601 17.6018 21.0571 16 17C19.9792 18.2154 23.8067 19.3795 27.8029 20.5949C26.8755 21.4337 26.0324 22.1869 25.1219 23.0257C26.4034 24.1213 27.668 25.1826 29 26.3295C28.1907 27.2197 27.4488 28.0756 26.6394 29Z" fill="#3A55AD"/>
</svg>
