<svg width="100" height="100" viewBox="0 0 100 100" fill="none" xmlns="http://www.w3.org/2000/svg">
<rect width="100" height="100" rx="50" fill="#5966E0"/>
<g clip-path="url(#clip0_503_339)">
<path d="M55.7763 25.7209V74.9445C46.9038 74.9445 38.0129 74.9445 29.1404 74.9445V72.4861C29.1404 56.9224 29.1404 41.3771 29.1404 25.8318C29.1404 24.9076 29.048 25 29.9907 25C38.3456 25 46.7005 25 55.0554 25C55.7763 25 55.7763 25 55.7763 25.7209Z" fill="#5966E0"/>
<path d="M55.0554 25C46.7005 25 38.3456 25 29.9907 25C29.048 25 29.1404 24.9076 29.1404 25.8318C29.1404 41.3771 29.1404 56.9408 29.1404 72.4861V74.9445C38.0129 74.9445 46.9038 74.9445 55.7763 74.9445V25.7209C55.7763 25 55.7763 25 55.0554 25ZM49.8059 62.1165V72.597C49.8059 73.3179 49.8059 73.3179 49.0665 73.3179C47.865 73.3179 46.6635 73.3179 45.4251 73.3179V59.9168C46.8114 59.9168 48.1608 59.9168 49.5101 59.9353C49.6025 59.9353 49.7874 60.1941 49.7874 60.342C49.8243 60.915 49.8059 61.525 49.8059 62.1165ZM53.4103 73.3179C52.9482 73.281 52.4861 73.281 52.024 73.3179C51.5619 73.3549 51.4694 73.1701 51.4694 72.7449C51.4879 70.7671 51.4694 68.7893 51.4694 66.8115C51.4694 64.1867 51.451 61.5619 51.4879 58.9372C51.4879 58.3826 51.3216 58.2532 50.804 58.2717C48.6783 58.3087 46.5526 58.2902 44.4269 58.2902H43.743V73.281H30.841V26.7006H54.0942C54.0942 26.9039 54.1127 27.1072 54.1127 27.3105C54.1127 42.4122 54.1127 57.5324 54.1312 72.634C54.1312 73.207 53.9463 73.3549 53.4103 73.3179Z" fill="white"/>
<path d="M40.9703 58.2533C38.7337 58.2533 36.4971 58.2533 34.2605 58.2533C34.1126 58.2533 33.9647 58.2717 33.8169 58.2902C33.7984 58.4011 33.7614 58.4935 33.7614 58.586C33.7614 60.8965 33.7614 63.207 33.7429 65.5176C33.7429 65.9057 33.9647 65.9057 34.242 65.9057C36.4971 65.9057 38.7522 65.9057 41.0072 65.9057C41.1551 65.9057 41.2845 65.8688 41.4324 65.8503C41.4509 65.7394 41.4878 65.6654 41.4878 65.61C41.4878 63.2995 41.4878 60.9889 41.5063 58.6784C41.4878 58.2717 41.266 58.2533 40.9703 58.2533ZM39.8058 63.9094C39.8058 64.0203 39.584 64.2422 39.4546 64.2422C38.2161 64.2606 36.9777 64.2606 35.7392 64.2422C35.6283 64.2422 35.425 64.0758 35.425 63.9834C35.4065 62.634 35.4065 61.3032 35.4065 59.8984C36.8298 59.8984 38.1607 59.8984 39.51 59.9168C39.6209 59.9168 39.8058 60.1386 39.8058 60.2496C39.8243 61.488 39.8243 62.708 39.8058 63.9094Z" fill="white"/>
<path d="M33.6135 48.4381V55.9982H41.2845V48.4381H33.6135ZM39.6209 54.0758C39.6209 54.1867 39.3991 54.3715 39.2882 54.3715C38.0498 54.39 36.8113 54.39 35.5913 54.3715C35.462 54.3715 35.2586 54.1497 35.2586 54.0203C35.2401 52.8004 35.2401 51.5804 35.2586 50.3604C35.2586 50.2495 35.462 50.0462 35.5729 50.0462C36.9037 50.0277 38.2161 50.0277 39.6579 50.0277C39.6394 51.4325 39.6579 52.7449 39.6209 54.0758Z" fill="white"/>
<path d="M51.3032 48.9556C51.3032 48.7708 51.2847 48.6044 51.2662 48.4011H43.5952V55.9982C43.7985 56.0166 43.9834 56.0351 44.1682 56.0351C46.3494 56.0351 48.5305 56.0166 50.7117 56.0536C51.1738 56.0536 51.3216 55.9242 51.3032 55.4621C51.2847 53.2995 51.3032 51.1368 51.3032 48.9556ZM49.6211 54.1128C49.6211 54.2052 49.4178 54.3715 49.2884 54.3715C48.0499 54.39 46.8115 54.39 45.573 54.3715C45.4436 54.3715 45.2403 54.1497 45.2218 54.0203C45.2033 52.8004 45.2033 51.5804 45.2218 50.3604C45.2218 50.2495 45.3882 50.0277 45.4621 50.0277C46.8115 50.0092 48.1793 50.0092 49.6026 50.0092C49.6396 51.4325 49.6396 52.7819 49.6211 54.1128Z" fill="white"/>
<path d="M33.6135 38.549V46.1275H41.266V38.549H33.6135ZM39.6209 44.2421C39.6209 44.3346 39.4176 44.4824 39.2882 44.4824C38.0498 44.5009 36.8113 44.5009 35.5729 44.4824C35.462 44.4824 35.2401 44.2976 35.2401 44.1867C35.2401 42.8743 35.2401 41.5434 35.2401 40.1941H39.6394C39.6394 41.5619 39.6394 42.9113 39.6209 44.2421Z" fill="white"/>
<path d="M43.5952 38.549C43.5768 38.7523 43.5583 38.9187 43.5583 39.0665C43.5583 41.2292 43.5768 43.3919 43.5398 45.5545C43.5398 46.0721 43.7246 46.1645 44.1867 46.1645C46.3494 46.146 48.5121 46.1645 50.6747 46.1645H51.2477V38.549H43.5952ZM49.159 44.5194C47.9945 44.5009 46.83 44.5194 45.6655 44.5009C45.5176 44.5009 45.2404 44.3346 45.2404 44.2421C45.2034 42.8928 45.2219 41.5619 45.2219 40.1756H49.6211V41.3216C49.6211 42.2274 49.6026 43.1331 49.6211 44.0388C49.6581 44.39 49.5287 44.5194 49.159 44.5194Z" fill="white"/>
<path d="M33.5952 28.6784V36.2569H41.2662V28.6784H33.5952ZM39.6396 34.353C39.6396 34.4455 39.4732 34.6118 39.3808 34.6118C38.0314 34.6303 36.7006 34.6303 35.2958 34.6303V30.305H39.6581C39.6396 31.6728 39.6396 33.0222 39.6396 34.353Z" fill="white"/>
<path d="M43.5952 28.6599V36.2385H51.2662V28.6599H43.5952ZM49.6026 34.5933H45.2588V30.3235H49.6026V34.5933Z" fill="white"/>
<path d="M49.6765 54.1127V75H41.3216C41.2846 75 41.2292 75 41.1922 75C40.8965 74.9815 40.6747 74.7782 40.6747 74.5194C40.6562 74.2421 40.878 74.0203 41.1922 74.0018C41.7098 73.9834 42.2273 74.0018 42.7264 74.0018C42.8004 74.0018 42.8928 73.9834 42.9852 73.9834V65.0924H41.3586C40.8595 65.0924 40.6747 64.9261 40.6747 64.427C40.6747 62.1534 40.6747 59.8983 40.6747 57.6248C40.6747 55.6839 42.1719 54.1497 44.1127 54.1127C44.2236 54.1127 44.353 54.1127 44.4639 54.1127H47.2551C47.6063 54.1127 47.9205 54.1497 48.1793 54.2052C48.6414 54.2976 48.9741 54.4639 49.2144 54.6303C49.2514 54.4455 49.3068 54.2791 49.3808 54.1127H49.6765Z" fill="#5966E0"/>
<path d="M61.8577 54.1127V75H70.2126C70.2495 75 70.305 75 70.342 75C70.6377 74.9815 70.8595 74.7782 70.8595 74.5194C70.878 74.2421 70.6562 74.0203 70.342 74.0018C69.8244 73.9834 69.3069 74.0018 68.8078 74.0018C68.7338 74.0018 68.6414 73.9834 68.549 73.9834V65.0924H70.1756C70.6747 65.0924 70.8595 64.9261 70.8595 64.427C70.8595 62.1534 70.8595 59.8983 70.8595 57.6248C70.8595 55.6839 69.3623 54.1497 67.4214 54.1127C67.3105 54.1127 67.1812 54.1127 67.0702 54.1127H64.2791C63.9279 54.1127 63.6137 54.1497 63.3549 54.2052C62.8928 54.2976 62.5601 54.4639 62.3198 54.6303C62.2828 54.4455 62.2274 54.2791 62.1534 54.1127H61.8577Z" fill="#5966E0"/>
<path d="M63.7801 54.1127C63.7616 54.1127 63.7246 54.1127 63.7061 54.1127C63.7616 54.1127 63.8171 54.1127 63.891 54.1127H63.7801ZM63.5583 54.1312C63.6137 54.1312 63.6692 54.1312 63.7246 54.1127C63.6507 54.1312 63.5952 54.1312 63.5583 54.1312ZM47.8281 54.1312C47.6433 54.1312 47.4585 54.1312 47.2551 54.1312C47.6063 54.1312 47.9206 54.1682 48.1793 54.2237C48.1054 54.1497 47.976 54.1312 47.8281 54.1312Z" fill="white"/>
<path d="M53.0222 47.0148C53.0222 46.9224 53.0407 46.8484 53.0222 46.756C52.9113 46.183 53.2255 45.8318 53.6507 45.536C55.0185 44.5934 56.756 44.5564 58.1424 45.4621C58.623 45.7763 58.8817 46.146 58.8633 46.7745C58.8448 47.8651 58.6969 48.8817 58.1054 49.8244C57.7172 50.4344 57.2366 50.9519 56.4973 51.1183C55.4991 51.3401 54.6858 51.0259 54.0388 50.2495C53.3734 49.4177 53.0222 48.3087 53.0222 47.0148ZM57.8466 47.1072C57.8466 46.9778 57.8281 46.8669 57.8466 46.7375C57.8651 46.5527 57.7727 46.4233 57.6248 46.3309C56.6082 45.61 55.1294 45.647 54.1498 46.4233C54.0758 46.4787 54.0019 46.5712 54.0019 46.6451C53.9464 47.6617 54.0943 48.6414 54.7043 49.4917C55.3882 50.4529 56.4418 50.4529 57.1257 49.4917C57.6618 48.7708 57.8466 47.9575 57.8466 47.1072Z" fill="white"/>
<path d="M43.891 49.9723C43.7062 49.0665 44.2422 48.6229 44.9631 48.2902C46.3494 47.6617 47.6433 47.8281 48.8448 48.7523C49.1036 48.9556 49.233 49.2144 49.233 49.5656C49.233 50.4714 49.159 51.3586 48.7154 52.1719C48.5306 52.4861 48.3272 52.8189 48.0685 53.0776C47.1997 53.9649 45.8873 53.9464 45.0186 53.0592C44.2237 52.2274 43.9095 51.2107 43.891 50.0832C43.891 50.0462 43.891 50.0092 43.891 49.9723ZM44.8892 49.8983C44.8892 50.7856 45.074 51.5619 45.5916 52.2089C45.9428 52.6525 46.4049 52.8004 46.867 52.6525C47.1997 52.5416 47.44 52.3013 47.6248 52.024C48.0869 51.3216 48.2348 50.5453 48.1978 49.732C48.1978 49.6026 48.1054 49.4547 47.9945 49.3808C47.1442 48.8262 46.257 48.7523 45.3513 49.1959C45.037 49.3623 44.7783 49.5471 44.8892 49.8983Z" fill="white"/>
<path d="M67.6618 49.8799C67.6618 50.9889 67.4215 51.9131 66.83 52.7264C65.8504 54.0758 64.1683 54.0573 63.1702 52.7264C62.6156 51.9686 62.3753 51.0998 62.3384 50.1571C62.3384 50.0462 62.3569 49.9353 62.3384 49.8244C62.2275 49.159 62.5787 48.7893 63.0962 48.475C64.2053 47.8096 65.3698 47.7357 66.5343 48.2717C67.2922 48.6044 67.8467 49.0665 67.6618 49.8799ZM66.6637 49.9723C66.6267 49.769 66.7376 49.5471 66.4788 49.3808C65.5731 48.7893 64.3347 48.7893 63.4844 49.4547C63.4105 49.5102 63.355 49.6026 63.3365 49.6765C63.2996 50.5453 63.4289 51.3956 63.9465 52.1165C64.538 52.9667 65.4437 52.9667 66.0352 52.1165C66.4973 51.4695 66.6637 50.7486 66.6637 49.9723Z" fill="white"/>
<path d="M55.7764 57.902C52.4492 57.902 49.6951 60.6562 49.6951 63.9834C49.6951 67.3475 52.4307 70.0647 55.7764 70.0832C59.1405 70.0832 61.8762 67.3475 61.8762 63.9834C61.8577 60.6562 59.1036 57.902 55.7764 57.902ZM55.61 63.4843C55.8688 63.5028 56.1461 63.5213 56.4049 63.5952C57.3845 63.8355 58.0869 64.7043 58.1239 65.6654C58.1609 66.6451 57.5324 67.5139 56.5527 67.8466C56.4603 67.8836 56.3864 67.902 56.294 67.9205C56.22 68.586 56.0906 68.7523 55.7579 68.7523C55.4252 68.7523 55.2958 68.549 55.2404 67.939C55.074 67.8836 54.8892 67.8281 54.7228 67.7357C53.9465 67.3475 53.4843 66.7375 53.4104 65.8688C53.3734 65.4991 53.5768 65.2403 53.8725 65.2403C54.1683 65.2218 54.3716 65.4436 54.3901 65.7948C54.464 66.5157 55.074 66.9963 55.8503 66.9593C56.5712 66.9224 57.1258 66.3494 57.0888 65.6839C57.0518 65.037 56.4788 64.5379 55.7209 64.5194C55.1664 64.5009 54.6673 64.3531 54.2422 64.0019C53.5768 63.4658 53.2625 62.7634 53.4104 61.9316C53.5583 61.0444 54.1313 60.4714 54.9631 60.1571C55.037 60.1202 55.111 60.1017 55.1664 60.1017C55.2219 59.8983 55.2404 59.658 55.3513 59.5471C55.4622 59.4362 55.7025 59.3808 55.8688 59.3993C56.0906 59.4362 56.2385 59.6211 56.22 59.8614C56.2015 60.0647 56.294 60.1202 56.4788 60.1941C57.403 60.4898 58.0315 61.2847 58.0685 62.1719C58.0869 62.5416 57.9021 62.7634 57.6063 62.7819C57.3106 62.8004 57.1073 62.597 57.0703 62.2458C57.0148 61.5989 56.5712 61.1922 55.8503 61.0629C55.3143 60.9704 54.6673 61.3401 54.464 61.8392C54.2052 62.5786 54.7413 63.4104 55.61 63.4843Z" fill="#5966E0"/>
<path d="M61.4512 59.4547C61.4512 59.5102 61.4327 59.5841 61.4327 59.695C61.2663 59.5102 61.1369 59.3623 61.0075 59.2329C60.7672 58.9926 60.5454 58.7153 60.2497 58.5305C59.917 58.3087 59.8061 58.0499 59.843 57.6802C59.88 57.2921 59.8615 56.9039 59.843 56.4972C59.843 56.1276 59.6397 55.9242 59.3439 55.9242C59.0297 55.9242 58.8449 56.146 58.8449 56.4972C58.8449 56.8484 58.8449 57.1996 58.8449 57.5878C56.7931 56.6821 54.7598 56.6636 52.6896 57.5878V56.5157C52.6896 56.1276 52.5048 55.9057 52.1905 55.9057C51.8763 55.9057 51.6915 56.1276 51.6915 56.5157C51.6915 57.0148 51.6915 57.4954 51.6915 57.9945C51.6915 58.0869 51.673 58.1978 51.6175 58.2348C51.1369 58.6784 50.6379 59.122 50.1388 59.5656C50.1203 59.4362 50.1018 59.2699 50.1018 59.1035C50.1018 57.939 50.1018 56.793 50.1018 55.6285C50.1018 53.9094 51.3218 52.6895 53.0408 52.6895C54.8523 52.6895 56.6822 52.6895 58.4937 52.6895C60.1942 52.6895 61.4142 53.9094 61.4327 55.61C61.4512 56.9039 61.4512 58.1793 61.4512 59.4547Z" fill="#5966E0"/>
<path d="M55.2588 71.1553V73.9834H52.708V70.4713C53.5583 70.6932 54.3901 70.9335 55.2588 71.1553Z" fill="#5966E0"/>
<path d="M58.8263 70.4899V74.0019H56.2939V71.1553C57.1442 70.9335 57.976 70.7117 58.8263 70.4899Z" fill="#5966E0"/>
<path d="M51.6914 69.9353C51.6914 71.2662 51.6914 72.597 51.6914 73.9279C51.6914 73.9464 51.6729 73.9649 51.6544 73.9834H50.3975V68.6784C50.8041 69.0296 51.1923 69.3623 51.5805 69.7135C51.6544 69.7689 51.6914 69.8614 51.6914 69.9353Z" fill="#5966E0"/>
<path d="M61.1554 68.6784V73.9834H59.8615C59.8615 73.8909 59.843 73.817 59.843 73.7246C59.843 72.5046 59.843 71.2662 59.843 70.0462C59.843 69.8614 59.8985 69.7689 60.0279 69.658C60.416 69.3438 60.7672 69.0111 61.1554 68.6784Z" fill="#5966E0"/>
<path d="M42.9853 63.4843H41.6914V64.0573H42.9853V63.4843Z" fill="#5966E0"/>
<path d="M69.843 63.4843H68.5491V64.0573H69.843V63.4843Z" fill="#5966E0"/>
<path d="M57.8467 47.1072C57.8467 47.976 57.6434 48.7708 57.1443 49.4732C56.4604 50.4344 55.4068 50.4344 54.7228 49.4732C54.1129 48.6229 53.9835 47.6433 54.0204 46.6266C54.0204 46.5527 54.0944 46.4603 54.1683 46.4048C55.148 45.6285 56.6267 45.61 57.6434 46.3124C57.7912 46.4233 57.8837 46.5342 57.8652 46.719C57.8467 46.8669 57.8467 46.9778 57.8467 47.1072Z" fill="#5966E0"/>
<path d="M44.8891 49.8983C44.7782 49.5471 45.037 49.3623 45.3697 49.1959C46.2939 48.7708 47.1811 48.8262 48.0129 49.3808C48.1054 49.4547 48.1978 49.6026 48.2163 49.732C48.2532 50.5453 48.1238 51.3216 47.6433 52.024C47.4584 52.3013 47.2181 52.5416 46.8854 52.6525C46.4048 52.8004 45.9612 52.6525 45.61 52.2089C45.0739 51.5619 44.8891 50.7856 44.8891 49.8983Z" fill="#5966E0"/>
<path d="M66.6637 49.9723C66.6637 50.7486 66.4973 51.4695 66.0537 52.098C65.4622 52.9482 64.5565 52.9482 63.965 52.098C63.4474 51.3586 63.318 50.5268 63.355 49.658C63.355 49.5841 63.4289 49.4917 63.5029 49.4362C64.3532 48.7893 65.5916 48.7708 66.4973 49.3623C66.7376 49.5471 66.6267 49.7689 66.6637 49.9723Z" fill="#5966E0"/>
<path d="M56.2941 67.9205C56.2202 68.5859 56.0908 68.7523 55.7581 68.7523C55.4253 68.7523 55.2959 68.549 55.2405 67.939C55.0741 67.8835 54.8893 67.8281 54.7229 67.7357C53.9466 67.3475 53.4845 66.7375 53.4105 65.8688C53.3736 65.4991 53.5769 65.2403 53.8726 65.2403C54.1684 65.2218 54.3717 65.4436 54.4087 65.7948C54.4826 66.5157 55.0926 66.9963 55.869 66.9593C56.5898 66.9224 57.1444 66.3493 57.1074 65.6839C57.0704 65.037 56.4974 64.5379 55.7396 64.5194C55.185 64.5009 54.686 64.353 54.2608 64.0018C53.5954 63.4658 53.2811 62.7819 53.429 61.9316C53.5769 61.0444 54.1499 60.4713 54.9817 60.1571C55.0556 60.1386 55.1481 60.1017 55.185 60.1017C55.2405 59.8798 55.259 59.658 55.3699 59.5471C55.4808 59.4362 55.7211 59.3808 55.8874 59.3993C56.1093 59.4362 56.2571 59.6211 56.2386 59.8614C56.2202 60.0647 56.3126 60.1201 56.4974 60.1941C57.4216 60.4898 58.0501 61.2847 58.0871 62.1719C58.1056 62.5416 57.9207 62.7634 57.625 62.7819C57.3107 62.8004 57.1259 62.597 57.0889 62.2458C57.0335 61.5989 56.5898 61.1922 55.869 61.0628C55.3329 60.9704 54.686 61.3401 54.4826 61.8392C54.1684 62.597 54.7229 63.4103 55.5732 63.5028C55.8505 63.5213 56.1093 63.5397 56.368 63.5952C57.3477 63.854 58.0501 64.7042 58.0871 65.6654C58.1056 66.6451 57.4956 67.5139 56.5159 67.8466C56.4789 67.8651 56.3865 67.8835 56.2941 67.9205Z" fill="white"/>
<path d="M70.1756 65.0924C70.6932 65.0924 70.8595 64.9261 70.8595 64.4085C70.8595 62.1719 70.8595 59.9353 70.8595 57.6987C70.8595 55.647 69.3438 54.1312 67.292 54.1128C66.146 54.1128 65.0185 54.1128 63.8724 54.1128C63.817 54.1128 63.7615 54.1128 63.6876 54.1128C63.6322 54.1128 63.5767 54.1128 63.5212 54.1312H63.5028C62.9482 54.1682 62.5416 54.2791 62.2273 54.427C61.7468 52.8189 60.305 51.7098 58.4935 51.7098C56.6451 51.7098 54.7967 51.6913 52.9482 51.7098C51.2662 51.7098 49.8983 52.671 49.3438 54.1128C49.2699 54.2791 49.2144 54.4455 49.1774 54.6303C48.9556 54.464 48.6229 54.2976 48.1423 54.2052C47.8835 54.1497 47.5693 54.1128 47.2181 54.1128C46.2939 54.1128 45.3512 54.0943 44.427 54.1128C44.3161 54.1128 44.1867 54.1128 44.0758 54.1128C42.1349 54.1497 40.6377 55.6839 40.6377 57.6248C40.6377 59.8983 40.6377 62.1534 40.6377 64.427C40.6377 64.9261 40.8041 65.0924 41.3216 65.0924H42.9482V73.9834C42.8558 73.9834 42.7634 74.0019 42.6895 74.0019C42.1719 74.0019 41.6728 74.0019 41.1553 74.0019C40.841 74.0019 40.6377 74.2422 40.6377 74.5194C40.6377 74.7967 40.8595 74.9815 41.1553 75C41.1922 75 41.2477 75 41.2846 75H70.0647C70.1571 75 70.231 75 70.3235 75C70.6192 74.9815 70.8225 74.7782 70.8225 74.5009C70.8225 74.2237 70.6192 74.0204 70.3235 74.0019C70.0647 73.9834 69.8244 74.0019 69.5656 74.0019H68.512V65.0924H70.1756ZM42.9852 64.0758H41.6913V63.5028H42.9852V64.0758ZM49.3808 73.6507C49.3808 73.7616 49.3808 73.8725 49.3808 73.9834H47.1996V66.3679C47.1996 66.2569 47.1996 66.1645 47.1811 66.0536C47.1257 65.7948 46.9224 65.6285 46.6636 65.647C46.4233 65.6654 46.2384 65.8503 46.2015 66.0906C46.183 66.2015 46.2015 66.3124 46.2015 66.4233V73.9834H44.0018V58.6044C44.0018 58.4751 44.0018 58.3457 43.9649 58.2163C43.8909 57.976 43.7061 57.8466 43.4658 57.8651C43.207 57.8836 43.0591 58.0314 43.0222 58.2902C43.0037 58.3826 43.0037 58.4751 43.0037 58.5675V62.4492H41.6728V57.7542C41.6728 56.1645 42.7264 55.1109 44.3346 55.1109C44.926 55.1109 45.4991 55.1109 46.0906 55.1109H49.1405C49.122 55.2773 49.1035 55.4621 49.1035 55.6285C49.1035 57.5324 49.1035 59.4362 49.1035 61.3216C49.1035 61.4695 49.085 61.6174 49.048 61.7653C48.4935 63.5213 48.5859 65.2403 49.3253 66.9224C49.3623 66.9963 49.3992 67.1072 49.3992 67.1812C49.3808 69.3438 49.3808 71.5065 49.3808 73.6507ZM50.1017 55.6654C50.1017 53.9464 51.3216 52.7264 53.0407 52.7264C54.8521 52.7264 56.6821 52.7264 58.4935 52.7264C60.1941 52.7264 61.414 53.9464 61.4325 55.647C61.451 56.9224 61.4325 58.1978 61.4325 59.4732C61.4325 59.5287 61.414 59.6026 61.414 59.7135C61.2477 59.5287 61.1183 59.3808 60.9889 59.2514C60.7486 59.0111 60.5268 58.7338 60.231 58.549C59.8983 58.3272 59.7874 58.0684 59.8244 57.6987C59.8614 57.3105 59.8429 56.9224 59.8244 56.5157C59.8244 56.146 59.6211 55.9427 59.3253 55.9427C59.0111 55.9427 58.8262 56.1645 58.8262 56.5157C58.8262 56.8669 58.8262 57.2181 58.8262 57.6063C56.7745 56.7006 54.7412 56.6821 52.671 57.6063V56.5342C52.671 56.146 52.4861 55.9242 52.1719 55.9242C51.8577 55.9242 51.6728 56.146 51.6728 56.5342C51.6728 57.0333 51.6728 57.5139 51.6728 58.0129C51.6728 58.1054 51.6543 58.2163 51.5989 58.2532C51.1183 58.6969 50.6192 59.1405 50.1201 59.5841C50.1017 59.4547 50.0832 59.2884 50.0832 59.122C50.1017 57.976 50.1017 56.8115 50.1017 55.6654ZM51.6913 73.9279C51.6913 73.9464 51.6728 73.9649 51.6543 73.9834H50.3974V68.6784C50.8041 69.0296 51.1922 69.3623 51.5804 69.7135C51.6358 69.769 51.6728 69.8429 51.6728 69.9168C51.6913 71.2662 51.6913 72.5971 51.6913 73.9279ZM55.2588 73.9834H52.7079V70.4714C53.5397 70.6932 54.39 70.915 55.2588 71.1368V73.9834ZM58.8262 73.9834H56.2939V71.1368C57.1442 70.915 57.976 70.6932 58.8262 70.4714V73.9834ZM61.1553 73.9834H59.8614C59.8614 73.891 59.8429 73.817 59.8429 73.7246C59.8429 72.5046 59.8429 71.2662 59.8429 70.0462C59.8429 69.8614 59.8983 69.769 60.0277 69.6581C60.3974 69.3623 60.7486 69.0296 61.1368 68.6784V73.9834H61.1553ZM55.7578 70.0832C52.4122 70.0832 49.6765 67.3475 49.6765 63.9834C49.6765 60.6562 52.4307 57.902 55.7578 57.902C59.085 57.902 61.8577 60.6562 61.8577 63.9834C61.8577 67.3475 59.122 70.0832 55.7578 70.0832ZM68.5305 58.3272C68.512 58.0684 68.3087 57.8836 68.0684 57.8651C67.8096 57.8466 67.6063 58.0129 67.5508 58.2902C67.5323 58.4011 67.5323 58.5305 67.5323 58.6599V74.0019H65.3512V73.6876C65.3512 71.2847 65.3512 68.8817 65.3512 66.4788C65.3512 66.3679 65.3512 66.2569 65.3512 66.146C65.3327 65.8873 65.1294 65.7024 64.8706 65.6839C64.6118 65.6654 64.4085 65.8503 64.3715 66.1091C64.353 66.2015 64.353 66.2939 64.353 66.3863C64.353 68.8078 64.353 71.2292 64.353 73.6507V74.0019H62.1719V73.6507C62.1719 71.5804 62.1719 69.5102 62.1719 67.4399C62.1719 67.2181 62.2273 66.9778 62.3013 66.7745C62.8558 65.4252 63.0222 64.0388 62.7079 62.6155C62.5601 61.9686 62.4122 61.3216 62.4307 60.6377C62.4492 58.9741 62.4492 57.3105 62.4307 55.6285C62.4307 55.4621 62.4122 55.2773 62.3937 55.1109H65.037C65.7763 55.1109 66.5157 55.1109 67.2551 55.1109C68.7523 55.1109 69.8429 56.183 69.8429 57.6802C69.8429 59.1775 69.8429 60.6562 69.8429 62.1534C69.8429 62.2459 69.8244 62.3568 69.8244 62.4492H68.512V58.586C68.549 58.4935 68.549 58.4196 68.5305 58.3272ZM68.549 64.0573V63.4843H69.8429V64.0573H68.549Z" fill="white"/>
</g>
<defs>
<clipPath id="clip0_503_339">
<rect width="41.719" height="50" fill="white" transform="translate(29.1404 25)"/>
</clipPath>
</defs>
</svg>
