<svg width="100" height="100" viewBox="0 0 100 100" fill="none" xmlns="http://www.w3.org/2000/svg">
<rect width="100" height="100" rx="50" fill="#5966E0"/>
<path d="M33.4465 49.9726C33.4465 44.3496 33.4465 38.7167 33.4465 33.0937C33.4465 28.98 35.6859 25.7443 39.0005 25.0833C39.3754 25.0142 39.7502 25.0044 40.135 25.0044C46.7149 25.0044 53.285 24.9945 59.8649 25.0044C63.7418 25.0044 66.5533 28.4374 66.5533 33.1528C66.5533 44.389 66.5533 55.6154 66.5533 66.8515C66.5533 71.567 63.7418 75 59.8649 75C53.285 75 46.7149 75 40.135 75C36.258 75 33.4465 71.567 33.4465 66.8515C33.4465 61.2285 33.4465 55.6055 33.4465 49.9726ZM65.5964 50.0712C65.5964 44.4088 65.6063 38.7364 65.5964 33.0739C65.5866 29.1181 63.1499 26.1783 59.9044 26.1783C53.2948 26.1783 46.6853 26.1783 40.0856 26.1783C36.8697 26.1783 34.4133 29.1181 34.4133 33.0345C34.4034 44.3496 34.4034 55.6548 34.4133 66.9699C34.4133 70.8863 36.8598 73.8359 40.0758 73.8359C46.6952 73.8359 53.3244 73.8359 59.9438 73.8359C60.2694 73.8359 60.6048 73.8261 60.9303 73.757C63.6826 73.1553 65.5866 70.4227 65.5964 67.0094C65.6063 61.3568 65.5964 55.714 65.5964 50.0712Z" fill="white"/>
<path d="M49.9998 31.3476C55.3072 31.3476 59.5886 35.6388 59.5689 40.9462C59.559 46.2338 55.2776 50.5053 49.99 50.4954C44.6826 50.4954 40.4012 46.1943 40.421 40.887C40.4407 35.5994 44.7122 31.3476 49.9998 31.3476ZM43.3114 46.293C43.7356 45.3262 44.5445 44.902 45.4126 44.5567C45.9355 44.3496 46.4386 44.1128 46.9614 43.9254C47.2771 43.807 47.4251 43.6196 47.356 43.294C47.287 42.9882 47.2179 42.6627 47.0699 42.3963C46.3597 41.1139 46.3103 39.7229 46.3597 38.3221C46.4287 36.3886 47.9775 34.9384 49.9407 34.9187C51.963 34.8989 53.5512 36.2702 53.6499 38.2234C53.6893 39.0718 53.6499 39.9399 53.5019 40.7686C53.3934 41.3802 53.1172 41.982 52.8212 42.5443C52.4858 43.1559 52.6141 43.7182 53.2355 44.0043C54.5081 44.5962 56.0175 44.8034 56.7277 46.2634C59.5294 43.0671 59.1644 37.7499 55.978 34.7115C52.6042 31.4955 47.3955 31.4955 44.0315 34.7214C40.8353 37.7795 40.4802 43.0869 43.3114 46.293ZM52.7916 39.1113C52.762 39.1113 52.7324 39.1014 52.7028 39.1014C52.7028 38.8548 52.7127 38.6082 52.7028 38.3615C52.6239 36.9213 51.4697 35.8657 49.9801 35.8756C48.5201 35.8854 47.3758 36.941 47.3166 38.3714C47.2968 38.8647 47.2672 39.3678 47.356 39.8512C47.4645 40.5121 47.5336 41.252 47.8887 41.765C48.2932 42.3569 48.3129 42.929 48.3327 43.5604C48.3524 44.1227 48.1354 44.4877 47.6027 44.7047C46.8233 45.0105 46.0539 45.3459 45.2844 45.6813C44.8109 45.8885 44.367 46.1746 44.2288 46.7073C44.1795 46.9145 44.219 47.2597 44.3669 47.3978C47.2672 50.239 52.7226 50.2291 55.6722 47.3978C55.7906 47.2893 55.8596 47.0526 55.8399 46.8947C55.7708 46.3127 55.3565 45.9773 54.8633 45.7405C54.301 45.4742 53.7091 45.2571 53.1369 45.0105C51.598 44.3496 51.6374 44.5173 51.7163 42.6232C51.7262 42.4456 51.8446 42.2681 51.9334 42.1004C52.0715 41.8241 52.2984 41.5775 52.3674 41.2914C52.545 40.5713 52.6535 39.8413 52.7916 39.1113Z" fill="white"/>
<path d="M50.0394 65.066C46.5866 65.066 43.1339 65.066 39.6812 65.066C39.5332 65.066 39.3458 65.1153 39.2471 65.0462C39.0695 64.918 38.8525 64.7306 38.8328 64.553C38.8131 64.4248 39.0893 64.2373 39.2668 64.1288C39.3655 64.0696 39.5233 64.1091 39.6516 64.1091C46.5373 64.1091 53.4329 64.1091 60.3187 64.1091C60.6837 64.1091 61.1769 64.0104 61.1868 64.5629C61.1967 65.1449 60.6837 65.0561 60.2989 65.0561C56.8758 65.066 53.4625 65.066 50.0394 65.066Z" fill="white"/>
<path d="M50.0197 56.9373C53.4823 56.9373 56.9547 56.9373 60.4173 56.9373C60.5752 56.9373 60.7823 56.9077 60.8909 56.9866C61.029 57.0852 61.1769 57.2924 61.1671 57.4502C61.1572 57.5982 60.9796 57.7758 60.8218 57.8646C60.6936 57.9336 60.5061 57.904 60.3384 57.904C53.4428 57.904 46.5373 57.904 39.6417 57.904C39.5727 57.904 39.5135 57.904 39.4444 57.904C39.0893 57.9139 38.7934 57.8054 38.8032 57.4108C38.8131 57.0063 39.1189 56.9373 39.474 56.9373C42.9958 56.9373 46.5078 56.9373 50.0197 56.9373Z" fill="white"/>
<path d="M49.9507 61.4653C46.5374 61.4653 43.1143 61.4653 39.701 61.4653C39.5333 61.4653 39.3459 61.5146 39.2176 61.4455C39.0499 61.3568 38.8428 61.1792 38.8329 61.0312C38.823 60.8734 39.0006 60.6662 39.1585 60.5577C39.2768 60.4788 39.4741 60.5084 39.6418 60.5084C46.5572 60.5084 53.4725 60.5084 60.3878 60.5084C60.5161 60.5084 60.6937 60.4689 60.7726 60.5281C60.9403 60.6662 61.1573 60.8536 61.177 61.0312C61.1869 61.1595 60.9206 61.3469 60.743 61.4455C60.6345 61.5047 60.4569 61.4653 60.3089 61.4653C56.8463 61.4653 53.3936 61.4653 49.9507 61.4653Z" fill="white"/>
<path d="M45.9455 68.647C43.8442 68.647 41.7331 68.647 39.6319 68.647C39.5036 68.647 39.3359 68.6963 39.2472 68.6272C39.0794 68.5088 38.8131 68.3214 38.8328 68.1833C38.8526 68.0057 39.0893 67.8282 39.257 67.6901C39.3261 67.6309 39.4839 67.6703 39.5924 67.6703C43.8344 67.6703 48.0763 67.6703 52.3182 67.6703C52.4465 67.6703 52.6142 67.6309 52.703 67.6901C52.8707 67.8084 53.0976 67.9959 53.0976 68.1537C53.0976 68.3115 52.8608 68.4891 52.6931 68.6174C52.6043 68.6766 52.4366 68.6371 52.3084 68.6371C50.1874 68.647 48.0664 68.647 45.9455 68.647Z" fill="white"/>
</svg>
