<svg width="29" height="29" viewBox="0 0 29 29" fill="none" xmlns="http://www.w3.org/2000/svg">
<g clip-path="url(#clip0_522_7)">
<path d="M0 14.5C0 6.47442 6.48791 0 14.5405 0C22.5391 0 29.0135 6.51488 29 14.5674C29 22.5526 22.4716 29.0135 14.4056 29C6.48791 29 0 22.4716 0 14.5ZM14.527 20.9205C17.1167 20.9205 19.693 20.9205 22.2828 20.9205C23.2 20.9205 23.3619 20.7586 23.3619 19.8819C23.3619 16.294 23.3619 12.6926 23.3619 9.10465C23.3619 8.25488 23.1865 8.09302 22.3233 8.09302C17.1167 8.09302 11.8967 8.09302 6.69023 8.09302C5.8 8.09302 5.63814 8.25488 5.63814 9.17209C5.63814 12.7465 5.63814 16.3209 5.63814 19.8819C5.63814 20.7721 5.8 20.934 6.71721 20.934C9.32047 20.934 11.9237 20.9205 14.527 20.9205Z" fill="#3A55AD"/>
<path d="M20.6102 9.88696C18.5195 11.7214 16.5232 13.4479 14.4999 15.2284C12.4902 13.4614 10.4804 11.7214 8.37622 9.88696C12.5037 9.88696 16.4827 9.88696 20.6102 9.88696Z" fill="#3A55AD"/>
<path d="M16.2938 15.6196C17.6966 16.874 19.059 18.088 20.5292 19.3964C16.4962 19.3964 12.5845 19.3964 8.55151 19.3964C9.99477 18.1015 11.3706 16.8875 12.7464 15.6466C13.1106 15.9703 13.4883 16.2536 13.8255 16.5773C14.311 17.0494 14.7562 17.0224 15.2283 16.5638C15.5385 16.2401 15.8892 15.9568 16.2938 15.6196Z" fill="#3A55AD"/>
<path d="M11.6405 14.6619C10.1298 15.9972 8.68654 17.2921 7.16235 18.6544C7.16235 15.9972 7.16235 13.4344 7.16235 10.7502C8.67305 12.0856 10.1298 13.3535 11.6405 14.6619Z" fill="#3A55AD"/>
<path d="M21.8646 10.7502C21.8646 13.4075 21.8646 15.9433 21.8646 18.6275C20.3404 17.2651 18.8836 15.9837 17.3999 14.6619C18.8701 13.3535 20.3269 12.0856 21.8646 10.7502Z" fill="#3A55AD"/>
</g>
<defs>
<clipPath id="clip0_522_7">
<rect width="29" height="29" fill="white"/>
</clipPath>
</defs>
</svg>
