<svg width="55" height="46" viewBox="0 0 55 46" fill="none" xmlns="http://www.w3.org/2000/svg">
<path d="M13.4732 28.1429H3.74512V35.7659H13.4732V28.1429Z" fill="#0A0033"/>
<path d="M9.72808 9.26306H0V16.886H9.72808V9.26306Z" fill="#0A0033"/>
<path d="M55 28.1429H34.8569L43.189 35.7659H55V28.1429Z" fill="#0A0033"/>
<path d="M13.4732 7.4678V6.07174H20.4535C23.4007 6.07174 26.7912 6.33766 29.6054 7.4678H49.2167V0H3.74512V7.4678H13.4732Z" fill="#0A0033"/>
<path d="M13.4732 18.7028H3.74512V26.3257H13.4732V18.7028Z" fill="#0A0033"/>
<path d="M32.6854 9.26306C34.5025 10.8364 35.6991 13.1188 35.6991 16.4871C35.6991 16.6201 35.6991 16.753 35.6991 16.886H49.2386V9.26306H32.6854Z" fill="#0A0033"/>
<path d="M28.9847 16.5313C28.9847 13.7171 26.9682 11.8335 22.1374 11.8335H19.8106V21.5394H21.9601C26.7466 21.5394 28.9847 19.8774 28.9847 16.5313Z" fill="#0A0033"/>
<path d="M39.3778 37.5826L41.9484 39.9315H33.1953L20.4757 27.3005H19.8109V39.9315H13.4732V37.5826H3.74512V45.4936H49.2167V37.5826H39.3778Z" fill="#0A0033"/>
<path d="M28.896 26.3257H49.2164V18.7028H35.5217C34.8569 22.9574 32.1756 25.1955 28.896 26.3257Z" fill="#0A0033"/>
</svg>
