<svg width="55" height="62" viewBox="0 0 55 62" fill="none" xmlns="http://www.w3.org/2000/svg">
<path d="M10.2595 61.5817L6.04917 57.4157H5.82758V61.5817H3.72241V50.3911H6.02702C8.1765 50.3911 11.0794 50.8121 11.0794 53.848C11.0794 55.9532 9.86063 56.8617 8.3981 57.2384L13.1624 61.6039H10.2595V61.5817ZM6.53669 55.51C8.11002 55.51 8.86345 54.956 8.86345 53.848C8.86345 52.9173 8.19866 52.2968 6.60317 52.2968H5.82758V55.51H6.53669Z" fill="#fff"/>
<path d="M13.7385 61.5596V50.3911H20.3864V52.2968H15.8437V54.7122H19.5V56.618H15.8437V59.6538H20.8518V61.5596H13.7385Z" fill="#fff"/>
<path d="M30.7353 61.5816L29.7603 59.5207H24.6858L23.7107 61.5816H21.3618L27.212 49.9034L33.0621 61.5816H30.7353ZM27.212 54.2246L25.55 57.7701H28.9183L27.212 54.2246Z" fill="#fff"/>
<path d="M33.8818 61.5596V50.3911H35.987V59.6538H40.6627V61.5596H33.8818Z" fill="#fff"/>
<path d="M42.3685 58.7229C42.9447 59.2548 43.9862 59.9417 45.2493 59.9417C46.3794 59.9417 46.9999 59.4099 46.9999 58.59C46.9999 56.2189 42.0361 56.5956 42.0361 53.183C42.0361 51.1887 43.8311 50.125 45.6925 50.125C47.4209 50.125 48.6397 51.1887 48.8835 51.4324L47.8641 53.0058C47.288 52.4296 46.4681 52.0086 45.7146 52.0086C44.9612 52.0086 44.2299 52.341 44.2299 53.0944C44.2299 55.0666 49.238 54.6234 49.238 58.5678C49.238 60.2963 47.709 61.8475 45.0942 61.8475C43.4765 61.8475 41.881 60.8946 41.2827 60.252L42.3685 58.7229Z" fill="#fff"/>
<path d="M13.4732 28.1429H3.74512V35.7659H13.4732V28.1429Z" fill="#fff"/>
<path d="M9.72808 9.26306H0V16.886H9.72808V9.26306Z" fill="#fff"/>
<path d="M55 28.1429H34.8569L43.189 35.7659H55V28.1429Z" fill="#fff"/>
<path d="M13.4732 7.4678V6.07174H20.4535C23.4007 6.07174 26.7912 6.33766 29.6054 7.4678H49.2167V0H3.74512V7.4678H13.4732Z" fill="#fff"/>
<path d="M13.4732 18.7028H3.74512V26.3257H13.4732V18.7028Z" fill="#fff"/>
<path d="M32.6853 9.26306C34.5024 10.8364 35.699 13.1188 35.699 16.4871C35.699 16.6201 35.699 16.753 35.699 16.886H49.2386V9.26306H32.6853Z" fill="#fff"/>
<path d="M28.9846 16.5313C28.9846 13.7171 26.9681 11.8335 22.1373 11.8335H19.8105V21.5394H21.96C26.7465 21.5394 28.9846 19.8774 28.9846 16.5313Z" fill="#fff"/>
<path d="M39.3778 37.5826L41.9484 39.9315H33.1953L20.4757 27.3005H19.8109V39.9315H13.4732V37.5826H3.74512V45.4936H49.2167V37.5826H39.3778Z" fill="#fff"/>
<path d="M28.896 26.3257H49.2164V18.7028H35.5217C34.8569 22.9574 32.1756 25.1955 28.896 26.3257Z" fill="#fff"/>
</svg>