<svg width="663" height="642" viewBox="0 0 663 642" fill="none" xmlns="http://www.w3.org/2000/svg">
<g opacity="0.6">
<path opacity="0.7" d="M128 535.08V515.34C128 511.544 133.454 508.507 137.091 510.785L259.823 570.764C261.641 571.524 262.551 573.802 262.551 575.321V595.061C262.551 598.857 257.095 601.894 253.459 599.617L130.727 539.636C128.909 538.876 128 537.358 128 535.08Z" fill="#CAD9FF"/>
<path opacity="0.7" d="M9.09075 357.785L529.116 611.377C530.929 612.136 531.836 614.414 531.836 615.932V635.673C531.836 639.469 526.384 642.506 522.745 640.228L2.72023 386.637C0.906717 385.877 0 383.6 0 382.081V362.34C0 358.544 5.4521 355.507 9.09075 357.785Z" fill="#CAD9FF"/>
<path opacity="0.7" d="M168.589 423.959V404.218C168.589 400.422 174.043 397.384 177.68 399.663L354.046 485.458C355.871 486.217 356.778 488.496 356.778 490.014V509.755C356.778 513.551 351.326 516.588 347.687 514.31L171.316 428.514C170.407 427.755 168.589 426.236 168.589 423.959Z" fill="#CAD9FF"/>
<path opacity="0.7" d="M409.707 418.998V399.257C409.707 395.461 415.159 392.424 418.798 394.702L624.26 494.924C626.073 495.683 626.98 497.961 626.98 499.479V519.22C626.98 523.016 621.528 526.053 617.889 523.775L412.427 423.553C411.521 422.794 409.707 421.275 409.707 418.998Z" fill="#CAD9FF"/>
<path opacity="0.7" d="M470.286 484.699V504.439C470.286 508.236 464.833 511.273 461.195 508.995L325.739 442.94C323.914 442.181 323.007 439.903 323.007 438.385V418.644C323.007 414.848 328.46 411.811 332.098 414.089L467.554 480.143C468.46 480.903 470.286 482.421 470.286 484.699Z" fill="#CAD9FF"/>
<path opacity="0.7" d="M169.497 341.199V321.459C169.497 317.663 174.952 314.626 178.589 316.904L301.321 376.884C303.139 377.644 304.048 379.921 304.048 381.441V401.181C304.048 404.977 298.594 408.014 294.957 405.737L172.225 345.755C170.407 344.236 169.497 342.718 169.497 341.199Z" fill="#CAD9FF"/>
<path opacity="0.7" d="M169.497 257.681V237.94C169.497 234.144 174.952 231.107 178.589 233.385L358.592 320.7C360.417 321.459 361.324 323.737 361.324 325.255V344.995C361.324 348.793 355.872 351.829 352.233 349.552L172.225 262.237C171.316 261.478 169.497 259.96 169.497 257.681Z" fill="#CAD9FF"/>
<path opacity="0.7" d="M46 246.08V226.34C46 222.544 51.4522 219.507 55.0909 221.785L228.735 306.821C230.548 307.581 231.455 309.859 231.455 311.378V331.118C231.455 334.914 226.003 337.951 222.364 335.674L48.7204 250.637C46.9069 249.877 46 247.599 46 246.08Z" fill="#CAD9FF"/>
<path opacity="0.7" d="M170.406 174.922V155.181C170.406 151.385 175.861 148.348 179.498 150.626L302.23 210.607C304.048 211.366 304.958 213.645 304.958 215.163V234.904C304.958 238.7 299.502 241.736 295.866 239.459L173.134 179.477C171.316 178.718 170.406 177.2 170.406 174.922Z" fill="#CAD9FF"/>
<path opacity="0.7" d="M428.351 182.69V162.949C428.351 159.153 433.803 156.115 437.442 158.394L630.174 252.541C631.988 253.301 632.906 255.578 632.906 257.097V276.838C632.906 280.634 627.442 283.671 623.815 281.394L431.071 187.245C430.165 186.486 428.351 184.208 428.351 182.69Z" fill="#CAD9FF"/>
<path opacity="0.7" d="M23 112.081V92.3398C23 88.5438 28.4545 85.5069 32.092 87.7846L659.391 393.765C661.216 394.525 662.123 396.802 662.123 398.321V418.061C662.123 421.857 656.671 424.894 653.032 422.617L25.7285 116.636C23.9103 115.877 23 113.599 23 112.081Z" fill="#CAD9FF"/>
</g>
<rect x="91.4927" y="0.398682" width="227.096" height="201.601" fill="#E3EBFF"/>
<rect x="332.493" y="22.2939" width="227.096" height="317.647" fill="#E3EBFF"/>
<rect x="332.493" y="358" width="227.096" height="242" fill="#E3EBFF"/>
<rect x="91.4927" y="216.199" width="227.096" height="319.742" fill="#E3EBFF"/>
</svg>
