<svg width="100" height="100" viewBox="0 0 100 100" fill="none" xmlns="http://www.w3.org/2000/svg">
<rect width="100" height="100" rx="50" fill="#5966E0"/>
<path d="M78.6004 49.9844C78.5113 62.0236 69.9536 72.3302 58.0844 74.5728C46.9034 76.6941 35.4714 70.7514 30.7756 60.38C30.5165 59.8133 30.5084 59.2789 30.9051 58.7851C31.2775 58.3317 31.7714 58.2021 32.3301 58.3479C32.8158 58.4693 33.083 58.8255 33.2854 59.2627C35.0099 62.987 37.5441 66.0393 40.9445 68.3387C54.4977 77.5037 72.3986 69.7313 75.3781 54.1135C77.6774 42.0905 69.7835 30.4966 57.801 28.1487C47.7616 26.1813 37.6493 31.3467 33.3178 40.6493C32.9616 41.4185 32.492 41.7504 31.8524 41.6857C30.8727 41.5966 30.3222 40.6413 30.727 39.7183C31.4314 38.1314 32.2896 36.6417 33.3259 35.2491C37.6736 29.4684 43.4382 26.0355 50.6196 25.1773C63.8328 23.5985 75.961 32.7312 78.1551 45.8391C78.3899 47.2073 78.4547 48.5999 78.6004 49.9844Z" fill="white"/>
<path d="M53.5505 63.0032C49.5671 63.0032 45.5918 63.0032 41.6084 63.0032C40.9203 63.0032 40.815 62.8818 40.8393 62.1936C40.8636 61.384 40.8717 60.5743 40.9041 59.7647C40.9364 58.7122 41.3656 57.9025 42.3452 57.4168C43.4382 56.8662 44.5393 56.3238 45.6161 55.7246C46.531 55.2146 47.4216 54.664 48.3041 54.0973C48.8222 53.7653 48.887 53.733 49.3647 54.1054C52.0527 56.178 54.9835 56.1699 57.6958 54.0811C57.9953 53.8544 58.2706 53.7168 58.5945 54.0001C59.7684 55.0365 61.2177 55.587 62.5779 56.2914C63.3308 56.68 64.0838 57.0767 64.8286 57.4815C65.6706 57.9268 66.0755 58.6555 66.124 59.5785C66.1726 60.4934 66.1807 61.4082 66.205 62.3312C66.2131 62.8575 66.0674 62.9951 65.533 62.9951C61.5415 63.0032 57.542 63.0032 53.5505 63.0032Z" fill="white"/>
<path d="M53.3723 37.1517C56.708 37.1113 58.9021 38.9815 59.4931 42.3981C59.5498 42.7058 59.5741 43.0135 59.6146 43.3211C59.6955 43.9041 59.7765 44.4627 59.9627 45.0375C60.4242 46.4787 60.1003 47.8631 59.0397 49.0128C58.9264 49.1343 58.8292 49.2881 58.7644 49.4419C58.3758 50.3649 57.9062 51.2393 57.2342 52.0004C56.5623 52.7533 55.7445 53.2877 54.8054 53.6277C53.259 54.1944 51.915 53.6763 50.6762 52.7776C49.6318 52.0246 48.9841 50.9559 48.4417 49.8063C48.2716 49.45 48.0368 49.1181 47.8021 48.8023C46.9843 47.6931 46.6119 46.4058 47.0653 45.1428C47.373 44.2846 47.3568 43.4264 47.5268 42.5763C47.7697 41.3294 48.1421 40.1474 48.9598 39.1434C50.0852 37.7428 51.6154 37.2003 53.3723 37.1517Z" fill="white"/>
<path d="M39.4628 48.6242C39.1714 48.3165 38.9689 48.0898 38.7584 47.8712C37.6493 46.6973 36.532 45.5233 35.4228 44.3412C34.9289 43.815 34.8722 43.1025 35.2608 42.5601C35.6333 42.0419 36.3377 41.8314 36.9206 42.1067C37.1311 42.2038 37.3335 42.3738 37.4954 42.5439C39.4952 44.6489 41.4869 46.7539 43.4786 48.8671C44.2153 49.6524 44.2153 50.3406 43.4786 51.1259C41.4869 53.2391 39.4952 55.3441 37.5035 57.4492C36.8801 58.105 36.0462 58.1778 35.4552 57.6354C34.856 57.0767 34.8803 56.2347 35.5199 55.5546C36.7101 54.2916 37.9083 53.0205 39.1066 51.7575C39.2037 51.6522 39.2928 51.5469 39.4628 51.3607C39.228 51.3607 39.0823 51.3607 38.9447 51.3607C33.6011 51.3607 28.2575 51.3607 22.914 51.3607C21.9991 51.3607 21.3919 50.8102 21.4 49.9925C21.4 49.2638 21.9505 48.6809 22.6792 48.6323C22.8249 48.6242 22.9788 48.6242 23.1245 48.6242C28.3871 48.6242 33.6497 48.6242 38.9123 48.6242C39.0418 48.6242 39.1875 48.6242 39.4628 48.6242Z" fill="white"/>
</svg>
