<svg width="100" height="100" viewBox="0 0 100 100" fill="none" xmlns="http://www.w3.org/2000/svg">
<rect width="100" height="100" rx="50" fill="#5966E0"/>
<path d="M33.1508 74.9946C32.7214 74.8859 32.2811 74.8152 31.8681 74.6685C29.6886 73.8913 28.2646 71.8857 28.2592 69.5812C28.2538 58.7057 28.2538 47.8247 28.2592 36.9491C28.2592 35.8893 28.4494 34.8784 29.0527 33.9762C29.7158 32.9816 30.6724 32.3565 31.7811 32.0195C33.0584 31.6282 34.3682 31.3293 35.6672 31.0304C42.3197 29.4868 48.9722 27.9596 55.6247 26.4269C57.6085 25.9703 59.5869 25.5083 61.5707 25.0572C62.7881 24.78 64.2284 25.5355 64.8535 26.7638C65.0872 27.2258 65.2122 27.7095 65.2122 28.2259C65.2176 30.3836 65.2176 32.5359 65.2122 34.6936C65.2122 35.3567 64.7448 35.8295 64.1143 35.8241C63.4893 35.8187 63.0381 35.3458 63.0381 34.6719C63.0327 32.5685 63.0327 30.4706 63.0381 28.3672C63.0381 27.9161 62.8968 27.5356 62.4892 27.3237C62.3099 27.2313 62.0653 27.1878 61.875 27.2313C57.6629 28.1878 53.4507 29.1661 49.2385 30.1336C44.0046 31.3402 38.7706 32.5413 33.5366 33.7533C33.0366 33.8675 32.5475 34.036 32.0692 34.2316C30.9876 34.6719 30.4767 35.5143 30.4332 36.6665C30.4278 36.7915 30.4278 36.922 30.4278 37.047C30.4278 47.841 30.4278 58.6405 30.4278 69.4345C30.4278 71.0868 31.4007 72.364 32.9497 72.7336C33.2105 72.7934 33.4877 72.8205 33.754 72.8205C45.2818 72.826 56.815 72.826 68.3428 72.826C69.1145 72.826 69.5548 72.3857 69.5548 71.6085C69.5548 69.5052 69.5548 67.4072 69.5548 65.3039C69.5548 64.7603 69.8483 64.3582 70.3211 64.2114C70.7668 64.0755 71.2614 64.2386 71.5223 64.6245C71.6038 64.7386 71.6582 64.8745 71.7234 64.9995C71.7234 67.3746 71.7234 69.7443 71.7234 72.1194C71.7071 72.1683 71.6853 72.2173 71.6745 72.2716C71.5168 73.1684 71.0603 73.8749 70.332 74.413C69.9026 74.7282 69.4026 74.8641 68.8971 75C56.9944 74.9946 45.0698 74.9946 33.1508 74.9946Z" fill="white"/>
<path d="M71.7397 48.0367C71.7071 48.0965 71.6745 48.1617 71.6419 48.2215C71.4245 48.6943 70.9517 48.9389 70.4408 48.8519C69.9679 48.7704 69.5929 48.3465 69.5712 47.841C69.5548 47.4171 69.5657 46.9877 69.5657 46.5638C69.5657 44.8789 69.5657 43.194 69.5657 41.5092C69.5657 40.6178 69.1581 40.2102 68.2776 40.2102C56.8314 40.2102 45.3797 40.2102 33.9335 40.2102C33.765 40.2102 33.5856 40.2102 33.4226 40.1667C32.8899 40.0363 32.5638 39.5634 32.6127 39.009C32.6562 38.5036 33.0747 38.0905 33.5965 38.0416C33.7161 38.0307 33.8302 38.0362 33.9498 38.0362C45.3906 38.0362 56.8259 38.0362 68.2667 38.0362C70.1147 38.0362 71.3212 39.009 71.7071 40.8189C71.7126 40.8515 71.7343 40.8841 71.7452 40.9167C71.7397 43.2919 71.7397 45.6615 71.7397 48.0367Z" fill="white"/>
<path d="M71.7397 61.0808C71.5168 61.7276 71.0549 61.9667 70.3809 61.9559C68.3265 61.9341 66.2666 61.9504 64.2121 61.9504C61.8044 61.945 59.8152 60.5482 58.9945 58.2872C57.9455 55.3903 59.6956 52.0586 62.6849 51.2923C63.1958 51.1618 63.7393 51.0966 64.2665 51.0912C66.3046 51.0694 68.3428 51.0966 70.3809 51.0749C71.0549 51.0694 71.5168 51.3031 71.7397 51.9499C71.7397 54.9935 71.7397 58.0372 71.7397 61.0808ZM69.5548 53.2598C67.658 53.2598 65.7937 53.2271 63.9295 53.2706C62.2827 53.3087 60.9294 54.7272 60.875 56.374C60.8098 58.2491 62.2446 59.7601 64.1306 59.7764C65.8698 59.7927 67.609 59.7818 69.3483 59.7818C69.4189 59.7818 69.4841 59.771 69.5548 59.7655C69.5548 57.5861 69.5548 55.4338 69.5548 53.2598Z" fill="white"/>
<path d="M51.505 56.5154C51.505 56.8034 51.2713 57.0317 50.9887 57.0317H46.3309V61.6895C46.3309 61.9776 46.0972 62.2059 45.8145 62.2059C45.5319 62.2059 45.2982 61.9722 45.2982 61.6895V57.0317H40.6404C40.3523 57.0317 40.124 56.798 40.124 56.5154C40.124 56.2273 40.3577 55.999 40.6404 55.999H45.2982V51.3412C45.2982 51.0531 45.5319 50.8249 45.8145 50.8249C46.0972 50.8249 46.3309 51.0586 46.3309 51.3412V55.999H50.9887C51.2768 55.9936 51.505 56.2273 51.505 56.5154Z" fill="white"/>
</svg>
