<svg width="28" height="28" viewBox="0 0 28 28" fill="none" xmlns="http://www.w3.org/2000/svg">
<path d="M13.0382 0C13.6821 0 14.3259 0 14.9698 0C15.5493 0.0883745 16.1368 0.144613 16.7163 0.257089C23.7746 1.67912 28.5794 8.08225 27.9436 15.2165C27.6136 18.9282 26.0442 22.0615 23.2273 24.4797C19.2756 27.8621 14.6962 28.8422 9.74646 27.2676C4.94164 25.7411 1.8511 22.3989 0.482897 17.5303C0.241448 16.6947 0.152917 15.811 0 14.9433C0 14.3006 0 13.6579 0 13.0152C0.136821 12.2118 0.201207 11.4003 0.41851 10.621C1.8672 5.38281 5.20724 1.97638 10.4467 0.474009C11.2837 0.232987 12.169 0.152647 13.0382 0ZM19.6619 10.4684C20.1046 10.0265 20.4829 9.60069 20.668 9.02224C20.2092 9.19095 19.7666 9.35163 19.332 9.51231C19.0986 9.60069 18.9215 9.56855 18.7203 9.3918C17.2716 8.17063 15.0825 8.70891 14.4064 10.4764C14.2213 10.9665 14.2133 11.5289 14.1167 12.1073C11.9356 11.9547 10.0764 10.9906 8.55532 9.23112C7.90341 10.6772 8.17705 11.8663 9.27966 12.9348C8.92554 12.8384 8.57141 12.734 8.1851 12.6295C8.24948 14.0114 8.99797 14.8469 10.2374 15.3531C9.89133 15.3691 9.54526 15.3852 9.16699 15.4093C9.61769 16.5421 10.4547 17.1286 11.67 17.2812C11.0986 17.7552 10.4869 18.0686 9.82695 18.2212C9.16699 18.3658 8.48288 18.414 7.79073 18.5104C7.80683 18.5185 7.84707 18.5345 7.87926 18.5586C10.7123 20.0932 13.5452 20.1092 16.2495 18.3337C18.5352 16.8394 19.6056 14.5898 19.7102 11.8824C19.7183 11.6012 19.7666 11.4003 20.008 11.2075C20.3782 10.9022 20.6841 10.5246 21.0221 10.1791C21.006 10.1631 20.9819 10.139 20.9658 10.1229C20.5231 10.2354 20.0965 10.3479 19.6619 10.4684Z" fill="#fff"/>
</svg>
