<svg width="69" height="25" viewBox="0 0 69 25" fill="none" xmlns="http://www.w3.org/2000/svg">
<path d="M18.568 18V6.8H22.856C23.5067 6.8 24.072 6.896 24.552 7.088C25.0427 7.28 25.4213 7.54133 25.688 7.872C25.9547 8.192 26.152 8.544 26.28 8.928C26.408 9.312 26.472 9.72267 26.472 10.16C26.472 11.0453 26.168 11.824 25.56 12.496C24.9627 13.168 24.0613 13.504 22.856 13.504H19.96V18H18.568ZM22.952 12.208C23.6773 12.208 24.2107 12.0053 24.552 11.6C24.904 11.1947 25.08 10.7147 25.08 10.16C25.08 9.616 24.9147 9.136 24.584 8.72C24.2533 8.304 23.7093 8.096 22.952 8.096H19.96V12.208H22.952ZM29.7341 8.096C29.5635 8.256 29.3555 8.336 29.1101 8.336C28.8648 8.336 28.6568 8.25067 28.4861 8.08C28.3261 7.90933 28.2461 7.70667 28.2461 7.472C28.2461 7.22667 28.3315 7.01867 28.5021 6.848C28.6728 6.66667 28.8755 6.576 29.1101 6.576C29.3555 6.576 29.5635 6.66667 29.7341 6.848C29.9048 7.01867 29.9901 7.22667 29.9901 7.472C29.9901 7.71733 29.9048 7.92533 29.7341 8.096ZM28.4221 18V9.824H29.8141V18H28.4221ZM35.3806 18.192C34.3353 18.192 33.5086 17.8187 32.9006 17.072C32.2926 16.3147 31.9886 15.264 31.9886 13.92C31.9886 12.576 32.2926 11.5253 32.9006 10.768C33.5193 10.0107 34.3673 9.632 35.4446 9.632C36.8953 9.632 37.85 10.2667 38.3086 11.536L36.9966 12.016C36.7193 11.2907 36.2073 10.928 35.4606 10.928C34.778 10.928 34.266 11.1893 33.9246 11.712C33.5833 12.2347 33.4126 12.9707 33.4126 13.92C33.4126 14.8587 33.5833 15.5893 33.9246 16.112C34.266 16.624 34.762 16.88 35.4126 16.88C36.266 16.88 36.8206 16.4747 37.0766 15.664L38.3726 16.096C38.17 16.768 37.8073 17.2853 37.2846 17.648C36.7726 18.0107 36.138 18.192 35.3806 18.192ZM42.5204 18.192C41.3684 18.192 40.7924 17.5413 40.7924 16.24V11.04H39.4644V9.824H40.7924V7.12L42.1844 6.448V9.824H44.2004V11.04H42.1844V15.776C42.1844 16.1387 42.243 16.416 42.3604 16.608C42.4777 16.8 42.7017 16.896 43.0324 16.896C43.395 16.896 43.8004 16.752 44.2484 16.464L44.0884 17.824C43.619 18.0693 43.0964 18.192 42.5204 18.192ZM50.8505 18V17.216C50.3492 17.8667 49.6612 18.192 48.7865 18.192C47.7945 18.192 47.0478 17.904 46.5465 17.328C46.0558 16.752 45.8105 15.824 45.8105 14.544V9.824H47.2025V14.752C47.2025 15.488 47.3572 16.032 47.6665 16.384C47.9865 16.7253 48.4185 16.896 48.9625 16.896C50.2212 16.896 50.8505 16.192 50.8505 14.784V9.824H52.2425V18H50.8505ZM54.9061 18V9.824H56.2981V10.896C56.6821 10.0533 57.3275 9.632 58.2341 9.632C58.7461 9.632 59.1675 9.77067 59.4981 10.048L59.2901 11.36C58.9488 11.1253 58.5595 11.008 58.1221 11.008C57.6421 11.008 57.2155 11.1947 56.8421 11.568C56.4795 11.9413 56.2981 12.5493 56.2981 13.392V18H54.9061ZM64.2769 18.192C63.1675 18.192 62.2822 17.7973 61.6209 17.008C60.9702 16.208 60.6449 15.1733 60.6449 13.904C60.6449 12.5707 60.9755 11.5253 61.6369 10.768C62.2982 10.0107 63.1782 9.632 64.2769 9.632C65.2582 9.632 66.0635 9.96267 66.6929 10.624C67.3329 11.2747 67.6529 12.24 67.6529 13.52C67.6529 13.8187 67.6369 14.128 67.6049 14.448H62.0689C62.1222 15.1947 62.3515 15.7973 62.7569 16.256C63.1729 16.704 63.6902 16.928 64.3089 16.928C64.9915 16.928 65.5782 16.6827 66.0689 16.192L66.9169 17.136C66.2129 17.84 65.3329 18.192 64.2769 18.192ZM62.0529 13.264H66.2449C66.2342 12.4213 66.0315 11.8133 65.6369 11.44C65.2529 11.056 64.7995 10.864 64.2769 10.864C63.6475 10.864 63.1302 11.0667 62.7249 11.472C62.3195 11.8667 62.0955 12.464 62.0529 13.264Z" fill="black"/>
<path d="M10 12.5729H6.25355V16H3.74645V12.5729H0L5 7L10 12.5729Z" fill="black"/>
<path d="M0 17.5H10" stroke="black"/>
</svg>
